<?xml version="1.0" encoding="utf-8"?>
<!-- Generator: Adobe Illustrator 16.0.3, SVG Export Plug-In . SVG Version: 6.00 Build 0)  -->
<!DOCTYPE svg PUBLIC "-//W3C//DTD SVG 1.1//EN" "http://www.w3.org/Graphics/SVG/1.1/DTD/svg11.dtd">
<svg version="1.1" id="Calque_1" xmlns="http://www.w3.org/2000/svg" xmlns:xlink="http://www.w3.org/1999/xlink" x="0px" y="0px"
	 width="206px" height="166px" viewBox="0 0 206 166" enable-background="new 0 0 206 166" xml:space="preserve">
<g>
	<path fill="#1D1D1B" d="M81.943,106.241c0-9.754,0-19.508,0-29.262c0-4.119,0-8.238,0-12.357
		c8.335,4.813,16.671,9.625,25.007,14.438c4.307,2.486,8.613,4.973,12.92,7.459c-8.607,4.476-17.215,8.952-25.823,13.428
		C90.013,102.045,85.978,104.144,81.943,106.241z M83.943,68.086c0,9.976,0,19.952,0,29.928c0,1.645,0,3.288,0,4.933
		c8.857-4.605,17.714-9.21,26.571-13.815c1.732-0.901,3.466-1.802,5.198-2.703c-8.623-4.979-17.246-9.957-25.869-14.936
		C87.876,70.357,85.91,69.221,83.943,68.086z"/>
	<path fill="#1D1D1B" d="M42.635,127.236c-4.861,0-9.722,0-14.583,0c-0.228,0-0.455,0-0.682,0c-0.067,0-0.031-1.338-0.031-1.481
		c0-0.274-0.13-0.519,0.163-0.519c0.354,0,0.709,0,1.064,0c2.958,0,5.917,0,8.875,0c1.494,0,2.987,0,4.48,0
		c0.097,0,0.641-0.074,0.713,0C42.855,125.463,42.635,126.886,42.635,127.236z"/>
	<path fill="#1D1D1B" d="M49.517,134.119c-4.291,0-7.882-3.592-7.882-7.883c0-4.29,3.592-7.881,7.882-7.881s7.881,3.591,7.881,7.881
		S53.808,134.119,49.517,134.119z M49.517,120.355c-3.201,0-5.882,2.679-5.882,5.881s2.68,5.883,5.882,5.883
		s5.881-2.682,5.881-5.883S52.718,120.355,49.517,120.355z"/>
	<path fill="#1D1D1B" d="M170.756,127.236c-5.248,0-10.496,0-15.744,0c-11.882,0-23.764,0-35.646,0c-12.723,0-25.444,0-38.166,0
		c-7.769,0-15.537,0-23.305,0c-0.489,0-0.979,0-1.467,0c0.23,0-0.608-2,0.303-2c2.147,0,4.295,0,6.442,0c10.132,0,20.264,0,30.396,0
		c13.086,0,26.173,0,39.26,0c10.248,0,20.495,0,30.743,0c1.896,0,3.791,0,5.687,0c0.425,0,0.851,0,1.275,0c0.071,0,0.143,0,0.214,0
		C170.764,125.236,170.756,127.04,170.756,127.236z"/>
	<g>
		<path fill="#1D1D1B" d="M157.643,69c-8.991,0-17.557-4.581-22.59-12.025c-5.105-7.551-6.073-17.425-2.516-25.822
			c3.465-8.176,10.917-14.313,19.621-16.099c8.906-1.828,18.318,1.01,24.744,7.436c6.426,6.426,9.263,15.838,7.436,24.745
			c-1.785,8.704-7.923,16.156-16.099,19.62C164.895,68.272,161.274,69,157.643,69z M157.643,16.5
			c-9.019,0-17.522,4.982-21.974,12.82c-4.516,7.953-4.304,18.009,0.54,25.765c4.79,7.671,13.518,12.288,22.557,11.89
			c8.98-0.395,17.248-5.735,21.353-13.726c4.01-7.805,3.604-17.395-1.042-24.835C174.497,21.081,166.294,16.5,157.643,16.5z"/>
	</g>
	<path fill="#1D1D1B" d="M171.756,148c-0.256,0-2,0.088-2-0.063c0-0.229,0-0.459,0-0.688c0-1.146,0-2.291,0-3.437
		c0-4.444,0-8.889,0-13.333c0-12.758,0-25.516,0-38.272c0-8.882,0-17.764,0-26.646c0-0.298,0-0.596,0-0.894
		c0-0.439,0.776-0.181,1.1-0.181c0.368,0,0.9-0.232,0.9,0.203c0,0.307,0,0.615,0,0.922c0,3.309,0,6.617,0,9.926
		c0,12.194,0,24.389,0,36.583c0,10.595,0,21.189,0,31.785C171.756,145.27,171.756,146.635,171.756,148z"/>
	<path fill="#1D1D1B" d="M170.756,148c-4.341,0-8.682,0-13.022,0c-10.567,0-21.134,0-31.7,0c-13.108,0-26.217,0-39.326,0
		c-11.966,0-23.933,0-35.9,0c-7.141,0-14.281,0-21.422,0c-0.6,0-1.199,0-1.798,0c-0.773,0,0.003-2-0.217-2c1.362,0,2.725,0,4.087,0
		c8.19,0,16.381,0,24.572,0c12.409,0,24.818,0,37.227,0c12.943,0,25.886,0,38.83,0c9.793,0,19.586,0,29.379,0
		c2.416,0,4.831,0,7.247,0c0.564,0,1.13,0,1.694,0c0.109,0,0.218,0,0.327,0C170.783,146,170.756,147.786,170.756,148z"/>
	<line fill="none" x1="170.756" y1="148" x2="170.756" y2="148"/>
	<path fill="#1D1D1B" d="M28.34,148c-0.24,0-2,0.064-2-0.049c0-0.178,0-0.355,0-0.533c0-0.901,0-1.803,0-2.704
		c0-3.64,0-7.278,0-10.918c0-11.835,0-23.67,0-35.504c0-12.6,0-25.2,0-37.799c0-6.992,0-13.983,0-20.975c0-0.163,0-0.325,0-0.487
		c0-0.09,2-0.001,2-0.029c0,0.421,0,0.842,0,1.264c0,2.875,0,5.751,0,8.626c0,11.096,0,22.192,0,33.289c0,12.912,0,25.825,0,38.737
		c0,8.355,0,16.712,0,25.067C28.34,146.657,28.34,147.328,28.34,148z"/>
	<path fill="#1D1D1B" d="M131.393,41c-5.658,0-11.317,0-16.976,0c-12.316,0-24.633,0-36.949,0c-11.984,0-23.969,0-35.953,0
		c-3.684,0-7.367,0-11.05,0c-0.882,0-1.765,0-2.646,0c-0.154,0-0.307,0-0.46,0c-0.044,0-0.015-2-0.01-2c5.86,0,11.72,0,17.581,0
		c12.378,0,24.756,0,37.134,0c11.906,0,23.813,0,35.719,0c3.495,0,6.989,0,10.484,0c0.861,0,1.723,0,2.584,0
		c0.167,0,0.334,0,0.501,0C131.445,39,131.393,40.768,131.393,41z"/>
	<g>
		<line fill="#1D1D1B" x1="158.476" y1="25.922" x2="158.476" y2="57.5"/>
		<path fill="#1D1D1B" d="M159.476,57.5c-0.37,0-2,0.24-2-0.164c0-0.566,0-1.132,0-1.699c0-2.47,0-4.939,0-7.409
			c0-6.138,0-12.275,0-18.413c0-1.296,0-2.591,0-3.887c0,0.113,2-0.233,2,0.099c0,0.521,0,1.041,0,1.561c0,5.669,0,11.338,0,17.006
			C159.476,48.896,159.476,53.198,159.476,57.5z"/>
	</g>
	<g>
		<line fill="#1D1D1B" x1="142.5" y1="41.507" x2="175.5" y2="41.507"/>
		<path fill="#1D1D1B" d="M175.5,42.507c-9.923,0-19.847,0-29.77,0c-0.29,0-3.23,0.114-3.23-0.097c0-0.43-0.321-1.903,0.225-1.903
			c0.586,0,1.173,0,1.76,0c5.7,0,11.4,0,17.101,0c3.562,0,7.123,0,10.685,0c0.929,0,1.857,0,2.786,0c0.147,0,0.295,0,0.442,0
			C175.502,40.507,175.5,42.317,175.5,42.507z"/>
	</g>
</g>
</svg>
