<?xml version="1.0" encoding="utf-8"?>
<!-- Generator: Adobe Illustrator 16.0.3, SVG Export Plug-In . SVG Version: 6.00 Build 0)  -->
<!DOCTYPE svg PUBLIC "-//W3C//DTD SVG 1.1//EN" "http://www.w3.org/Graphics/SVG/1.1/DTD/svg11.dtd">
<svg version="1.1" xmlns="http://www.w3.org/2000/svg" xmlns:xlink="http://www.w3.org/1999/xlink" x="0px" y="0px" width="425.2px"
     height="425.2px" viewBox="0 0 425.2 425.2" enable-background="new 0 0 425.2 425.2" xml:space="preserve">
<g id="AMALIA.JS">
	<g id="AMALIA_TXT">
		<path fill="#010202" d="M136.418,334.205l-2.366-6.683h-12.909l-2.366,6.683h-3.362l10.875-29.553h2.656l10.833,29.553H136.418z
			 M127.661,309.176l-5.562,15.607h11.041L127.661,309.176z"/>
		<path fill="#010202" d="M166.718,334.205V311.75l-8.094,17.807h-2.698l-8.218-17.807v22.455h-3.154v-29.553h3.154l9.63,20.961
			l9.38-20.961h3.154v29.553H166.718z"/>
		<path fill="#010202" d="M195.648,334.205l-2.366-6.683h-12.908l-2.365,6.683h-3.363l10.875-29.553h2.656l10.834,29.553H195.648z
			 M186.891,309.176l-5.562,15.607h11.041L186.891,309.176z"/>
		<path fill="#010202" d="M203.784,334.205v-29.553h3.154v26.73h15.107v2.822H203.784z"/>
		<path fill="#010202" d="M227.566,334.205v-29.553h3.154v29.553H227.566z"/>
		<path fill="#010202" d="M256.497,334.205l-2.366-6.683h-12.909l-2.365,6.683h-3.362l10.875-29.553h2.656l10.833,29.553H256.497z
			 M247.738,309.176l-5.562,15.607h11.041L247.738,309.176z"/>
		<path fill="#010202" d="M264.01,334.205v-3.902h3.902v3.902H264.01z"/>
		<path fill="#010202" d="M288.498,325.24c0,1.41-0.228,2.691-0.685,3.839c-0.457,1.148-1.094,2.116-1.909,2.905
			c-0.816,0.789-1.785,1.397-2.905,1.826c-1.121,0.429-2.359,0.644-3.715,0.644c-1.412,0-2.664-0.215-3.757-0.644
			c-1.094-0.429-2.096-1.1-3.009-2.013l2.116-2.117c0.525,0.554,1.127,1.017,1.806,1.391c0.678,0.374,1.625,0.561,2.844,0.561
			c1.937,0,3.431-0.588,4.482-1.765c1.051-1.176,1.577-2.856,1.577-5.043v-20.172h3.154V325.24z"/>
		<path fill="#010202" d="M314.44,326.07c0,1.301-0.243,2.469-0.727,3.507c-0.484,1.038-1.17,1.917-2.055,2.636
			c-0.886,0.72-1.958,1.273-3.217,1.66c-1.26,0.387-2.664,0.581-4.213,0.581c-1.107,0-2.124-0.077-3.051-0.228
			c-0.928-0.152-1.799-0.381-2.615-0.686s-1.584-0.705-2.304-1.203s-1.425-1.094-2.116-1.785l2.116-2.117
			c1.218,1.219,2.449,2.055,3.694,2.512c1.245,0.456,2.698,0.685,4.358,0.685c2.186,0,3.901-0.478,5.146-1.433
			c1.245-0.954,1.868-2.303,1.868-4.047c0-1.604-0.484-2.836-1.453-3.693c-0.222-0.193-0.45-0.367-0.685-0.52
			c-0.235-0.151-0.498-0.283-0.789-0.395c-0.29-0.109-0.629-0.207-1.017-0.29s-0.845-0.166-1.369-0.249l-3.445-0.498
			c-2.324-0.359-4.124-1.106-5.396-2.241c-1.521-1.355-2.282-3.21-2.282-5.562c0-1.246,0.221-2.38,0.664-3.404
			c0.442-1.023,1.072-1.902,1.889-2.636c0.815-0.733,1.806-1.293,2.968-1.681c1.162-0.387,2.476-0.581,3.942-0.581
			c1.882,0,3.501,0.263,4.856,0.788c1.355,0.526,2.67,1.343,3.943,2.449l-2.034,2.033c-0.886-0.857-1.867-1.5-2.946-1.93
			c-1.079-0.428-2.395-0.643-3.943-0.643c-1.992,0-3.535,0.505-4.628,1.515c-1.094,1.011-1.64,2.345-1.64,4.005
			c0,1.522,0.442,2.671,1.328,3.445c0.471,0.389,1.038,0.705,1.702,0.955c0.664,0.248,1.383,0.443,2.158,0.581l3.445,0.54
			c1.355,0.221,2.421,0.477,3.195,0.768c0.774,0.29,1.494,0.74,2.158,1.349c0.803,0.692,1.418,1.522,1.848,2.49
			C314.226,323.719,314.44,324.824,314.44,326.07z"/>
	</g>
</g>
<g id="Logo_amalia_color">
	<path fill="#010202" d="M314.416,279.845c0-11.905,0-23.811,0-35.717c0-12.534,0-25.068,0-37.604c0-6.712,0-13.424,0-20.136
		c0-0.108,0-0.217,0-0.325c-0.064,0.064-0.148,0.125-0.201,0.2c-1.104-18.061-7.09-35.678-17.227-50.668
		c-9.896-14.633-23.594-26.6-39.439-34.413c-16.475-8.122-35.057-11.592-53.356-10.1c-17.856,1.457-35.183,7.7-49.868,17.961
		c-14.369,10.042-26.059,23.785-33.631,39.597c-7.897,16.49-11.166,35.023-9.519,53.227c1.625,17.963,8.104,35.345,18.619,49.999
		c10.304,14.358,24.335,25.946,40.403,33.313c11.342,5.199,23.627,8.262,36.079,9.023c-0.076,0.053-0.124,0.146-0.2,0.2
		c5.481,0,10.963,0,16.444,0c12.143,0,24.285,0,36.428,0c12.352,0,24.703,0,37.057,0c6.109,0,12.221,0,18.33,0
		C314.508,294.403,314.416,280.716,314.416,279.845z M180.418,162.442c-0.658,1.315-1.781,2.296-2.807,3.32
		c-1.578,1.579-3.156,3.157-4.734,4.735c-7.546,7.546-15.091,15.092-22.637,22.638c-0.085,0.085-0.169,0.169-0.254,0.255
		c6.988,6.986,13.977,13.975,20.964,20.962c2.26,2.259,4.52,4.519,6.779,6.777c3.477,3.478,2.379,9.731-2.266,11.574
		c-2.85,1.131-5.986,0.379-8.12-1.755c-2.866-2.866-5.732-5.732-8.598-8.599c-7.755-7.755-15.51-15.51-23.266-23.265
		c-1.802-1.803-3.03-3.968-2.676-6.635c0.28-2.107,1.5-3.581,2.922-5.002c3.255-3.255,6.509-6.509,9.764-9.764
		c7.637-7.637,15.274-15.275,22.912-22.912c1.685-1.685,3.688-2.839,6.175-2.649C179.549,152.503,182.651,157.984,180.418,162.442z
		 M227.131,157.125c-2.111,6.739-4.223,13.478-6.334,20.216c-3.826,12.206-7.65,24.412-11.476,36.618
		c-1.377,4.397-2.756,8.796-4.135,13.194c-0.816,2.609-1.3,6.008-4.25,7.019c-3.654,1.252-7.238-2.191-6.072-5.911
		c0.211-0.672,0.422-1.345,0.632-2.017c1.185-3.782,2.37-7.564,3.556-11.347c3.776-12.055,7.554-24.11,11.33-36.165
		c2.516-8.029,5.033-16.059,7.548-24.089c0.473-1.513,1.4-2.782,2.928-3.379C224.51,149.836,228.301,153.39,227.131,157.125z
		 M279.102,206.548c-10,7.403-20,14.807-30,22.211c-2.82,2.087-5.639,4.174-8.459,6.262c0-6.665,0-13.33,0-19.995
		c0-12.838,0-25.676,0-38.514c0-8.275,0-16.551,0-24.826c0-0.185,0-0.369,0-0.553c6.053,4.487,12.107,8.974,18.16,13.461
		c10,7.413,20,14.826,30,22.239c2.818,2.09,5.639,4.18,8.457,6.27C291.207,197.585,285.154,202.066,279.102,206.548z"/>
</g>
</svg>
