<?xml version="1.0" encoding="utf-8"?>
<!-- Generator: Adobe Illustrator 16.0.4, SVG Export Plug-In . SVG Version: 6.00 Build 0)  -->
<!DOCTYPE svg PUBLIC "-//W3C//DTD SVG 1.1//EN" "http://www.w3.org/Graphics/SVG/1.1/DTD/svg11.dtd">
<svg version="1.1" id="Capa_1" xmlns="http://www.w3.org/2000/svg" xmlns:xlink="http://www.w3.org/1999/xlink" x="0px" y="0px"
     width="216px" height="146px" viewBox="0 0 216 146" enable-background="new 0 0 216 146" xml:space="preserve">
<path d="M128.857,114.715h-10.43V31.286h10.43c1.412,0,2.635-0.516,3.666-1.548c1.031-1.032,1.547-2.254,1.547-3.666
	c0-1.412-0.514-2.634-1.549-3.667L111.665,1.548C110.634,0.516,109.411,0,107.999,0s-2.634,0.516-3.666,1.548L83.476,22.405
	c-1.032,1.033-1.548,2.255-1.548,3.667c0,1.412,0.516,2.634,1.548,3.666c1.033,1.032,2.255,1.548,3.667,1.548h10.429v83.429H87.144
	c-1.413,0-2.635,0.516-3.667,1.547c-1.032,1.033-1.548,2.256-1.548,3.667c0,1.412,0.516,2.634,1.548,3.667l20.857,20.856
	c1.032,1.032,2.254,1.548,3.666,1.548s2.635-0.516,3.666-1.548l20.857-20.856c1.031-1.033,1.547-2.255,1.547-3.667
	c0-1.411-0.516-2.634-1.547-3.667C131.492,115.23,130.27,114.715,128.857,114.715z"/>
</svg>
