<?xml version="1.0" encoding="utf-8"?>
<!-- Generator: Adobe Illustrator 16.0.4, SVG Export Plug-In . SVG Version: 6.00 Build 0)  -->
<!DOCTYPE svg PUBLIC "-//W3C//DTD SVG 1.1//EN" "http://www.w3.org/Graphics/SVG/1.1/DTD/svg11.dtd">
<svg version="1.1" id="Capa_1" xmlns="http://www.w3.org/2000/svg" xmlns:xlink="http://www.w3.org/1999/xlink" x="0px" y="0px"
     width="216px" height="146px" viewBox="0 0 216 146" enable-background="new 0 0 216 146" xml:space="preserve">
<path d="M152.4,82.328c-5.267-12.845-7.901-26.383-7.901-40.614c0-8.962-2.606-16.077-7.819-21.346
	c-5.216-5.269-12.386-8.447-21.511-9.533c0.433-0.977,0.651-1.982,0.651-3.014c0-2.173-0.76-4.021-2.281-5.541
	c-1.52-1.521-3.367-2.281-5.54-2.281c-2.172,0-4.019,0.76-5.54,2.281c-1.521,1.521-2.281,3.368-2.281,5.541
	c0,1.032,0.217,2.036,0.652,3.014c-9.125,1.087-16.295,4.264-21.509,9.533C74.107,25.637,71.5,32.752,71.5,41.714
	c0,14.231-2.634,27.769-7.903,40.614c-5.269,12.846-13.063,23.642-23.383,32.387c0,2.824,1.032,5.268,3.096,7.332
	s4.508,3.096,7.333,3.096h36.5c0,5.758,2.036,10.674,6.11,14.747c4.074,4.073,8.99,6.11,14.747,6.11
	c5.758,0,10.674-2.037,14.746-6.11c4.074-4.073,6.111-8.989,6.111-14.747h36.5c2.824,0,5.27-1.031,7.332-3.096
	c2.064-2.064,3.096-4.508,3.096-7.332C165.467,105.97,157.672,95.174,152.4,82.328z M108,139.482c-3.965,0-7.347-1.398-10.144-4.195
	c-2.797-2.798-4.196-6.18-4.196-10.145c0-0.869,0.435-1.304,1.304-1.304c0.869,0,1.304,0.435,1.304,1.304
	c0,3.205,1.154,5.961,3.462,8.27c2.309,2.309,5.065,3.463,8.27,3.463c0.869,0,1.305,0.436,1.305,1.304
	C109.305,139.048,108.869,139.482,108,139.482z"/>
</svg>
