<?xml version="1.0" encoding="utf-8"?>
<!-- Generator: Adobe Illustrator 16.0.4, SVG Export Plug-In . SVG Version: 6.00 Build 0)  -->
<!DOCTYPE svg PUBLIC "-//W3C//DTD SVG 1.1//EN" "http://www.w3.org/Graphics/SVG/1.1/DTD/svg11.dtd">
<svg version="1.1" id="Capa_1" xmlns="http://www.w3.org/2000/svg" xmlns:xlink="http://www.w3.org/1999/xlink" x="0px" y="0px"
     width="216px" height="146px" viewBox="0 0 216 146" enable-background="new 0 0 216 146" xml:space="preserve">
<g>
	<path d="M163.809,1.548C162.777,0.516,161.555,0,160.143,0H55.857c-1.413,0-2.635,0.516-3.667,1.548
		c-1.032,1.032-1.548,2.254-1.548,3.666v135.571c0,1.413,0.516,2.635,1.548,3.667c1.033,1.032,2.255,1.548,3.667,1.548h104.286
		c1.412,0,2.635-0.516,3.666-1.548s1.549-2.254,1.549-3.667V5.214C165.357,3.802,164.841,2.58,163.809,1.548z M154.928,135.572
		h-31.285v-18.25c0-0.707-0.258-1.318-0.773-1.834c-0.518-0.516-1.127-0.773-1.834-0.773H94.964c-0.706,0-1.317,0.258-1.833,0.773
		c-0.516,0.516-0.774,1.127-0.774,1.834v18.25H61.071V10.428h93.857V135.572z"/>
	<path d="M74.107,114.715h5.214c0.706,0,1.317-0.257,1.833-0.773c0.516-0.518,0.774-1.127,0.774-1.834v-5.215
		c0-0.705-0.258-1.316-0.774-1.832c-0.516-0.516-1.127-0.774-1.833-0.774h-5.214c-0.706,0-1.317,0.258-1.833,0.774
		s-0.774,1.127-0.774,1.832v5.215c0,0.707,0.258,1.316,0.774,1.834C72.79,114.457,73.401,114.715,74.107,114.715z"/>
	<path d="M74.107,93.857h5.214c0.706,0,1.317-0.258,1.833-0.773c0.516-0.518,0.774-1.127,0.774-1.834v-5.215
		c0-0.705-0.258-1.317-0.774-1.832c-0.516-0.516-1.127-0.774-1.833-0.774h-5.214c-0.706,0-1.317,0.259-1.833,0.774
		S71.5,85.33,71.5,86.035v5.215c0,0.707,0.258,1.316,0.774,1.834C72.79,93.599,73.401,93.857,74.107,93.857z"/>
	<path d="M94.965,93.857h5.214c0.706,0,1.317-0.258,1.833-0.773c0.516-0.518,0.774-1.127,0.774-1.834v-5.215
		c0-0.705-0.259-1.316-0.774-1.832c-0.516-0.516-1.127-0.774-1.833-0.774h-5.214c-0.706,0-1.317,0.259-1.833,0.774
		c-0.516,0.516-0.774,1.127-0.774,1.832v5.215c0,0.707,0.258,1.316,0.774,1.834C93.648,93.599,94.259,93.857,94.965,93.857z"/>
	<path d="M74.107,73h5.214c0.706,0,1.317-0.258,1.833-0.774c0.516-0.516,0.774-1.127,0.774-1.833v-5.214
		c0-0.706-0.258-1.317-0.774-1.833c-0.516-0.516-1.127-0.774-1.833-0.774h-5.214c-0.706,0-1.317,0.258-1.833,0.774
		c-0.516,0.516-0.774,1.127-0.774,1.833v5.214c0,0.706,0.258,1.317,0.774,1.833S73.401,73,74.107,73z"/>
	<path d="M136.678,114.715h5.215c0.707,0,1.317-0.257,1.834-0.773c0.516-0.518,0.773-1.127,0.773-1.834v-5.215
		c0-0.705-0.258-1.316-0.773-1.832c-0.517-0.516-1.127-0.774-1.834-0.774h-5.215c-0.705,0-1.316,0.258-1.832,0.774
		s-0.773,1.127-0.773,1.832v5.215c0,0.707,0.257,1.316,0.773,1.834C135.361,114.457,135.973,114.715,136.678,114.715z"/>
	<path d="M115.822,93.857h5.214c0.707,0,1.317-0.258,1.834-0.773c0.515-0.518,0.772-1.127,0.772-1.834v-5.215
		c0-0.705-0.258-1.316-0.772-1.832c-0.517-0.516-1.127-0.774-1.834-0.774h-5.214c-0.706,0-1.318,0.259-1.834,0.774
		c-0.514,0.516-0.773,1.127-0.773,1.832v5.215c0,0.707,0.258,1.316,0.773,1.834C114.505,93.599,115.116,93.857,115.822,93.857z"/>
	<path d="M94.965,73h5.214c0.706,0,1.317-0.258,1.833-0.774c0.516-0.516,0.774-1.127,0.774-1.833v-5.214
		c0-0.706-0.259-1.316-0.774-1.833c-0.516-0.516-1.127-0.774-1.833-0.774h-5.214c-0.706,0-1.317,0.258-1.833,0.774
		c-0.516,0.516-0.774,1.127-0.774,1.833v5.214c0,0.706,0.258,1.317,0.774,1.833C93.648,72.742,94.259,73,94.965,73z"/>
	<path d="M74.107,52.143h5.214c0.706,0,1.317-0.258,1.833-0.774c0.516-0.516,0.774-1.126,0.774-1.833v-5.214
		c0-0.706-0.258-1.318-0.774-1.833c-0.516-0.516-1.127-0.774-1.833-0.774h-5.214c-0.706,0-1.317,0.258-1.833,0.774
		c-0.516,0.516-0.774,1.127-0.774,1.833v5.214c0,0.706,0.258,1.317,0.774,1.833C72.79,51.885,73.401,52.143,74.107,52.143z"/>
	<path d="M136.678,93.857h5.215c0.707,0,1.317-0.258,1.834-0.773c0.516-0.518,0.773-1.127,0.773-1.834v-5.215
		c0-0.705-0.258-1.316-0.773-1.832c-0.517-0.516-1.127-0.774-1.834-0.774h-5.215c-0.705,0-1.316,0.259-1.832,0.774
		s-0.773,1.127-0.773,1.832v5.215c0,0.707,0.257,1.316,0.773,1.834C135.361,93.599,135.973,93.857,136.678,93.857z"/>
	<path d="M115.822,73h5.214c0.707,0,1.317-0.258,1.834-0.774c0.515-0.516,0.772-1.127,0.772-1.833v-5.214
		c0-0.706-0.258-1.316-0.772-1.833c-0.517-0.516-1.127-0.774-1.834-0.774h-5.214c-0.706,0-1.318,0.258-1.834,0.774
		c-0.514,0.516-0.773,1.127-0.773,1.833v5.214c0,0.706,0.258,1.317,0.773,1.833C114.505,72.742,115.116,73,115.822,73z"/>
	<path d="M94.965,52.143h5.214c0.706,0,1.317-0.258,1.833-0.774c0.516-0.516,0.774-1.126,0.774-1.833v-5.214
		c0-0.706-0.259-1.318-0.774-1.833c-0.516-0.516-1.127-0.774-1.833-0.774h-5.214c-0.706,0-1.317,0.258-1.833,0.774
		c-0.516,0.516-0.774,1.127-0.774,1.833v5.214c0,0.706,0.258,1.317,0.774,1.833C93.648,51.885,94.259,52.143,94.965,52.143z"/>
	<path d="M74.107,31.285h5.214c0.706,0,1.317-0.258,1.833-0.774c0.516-0.516,0.774-1.127,0.774-1.833v-5.214
		c0-0.706-0.258-1.317-0.774-1.833c-0.516-0.516-1.127-0.774-1.833-0.774h-5.214c-0.706,0-1.317,0.258-1.833,0.774
		c-0.516,0.516-0.774,1.127-0.774,1.833v5.214c0,0.706,0.258,1.317,0.774,1.833C72.79,31.027,73.401,31.285,74.107,31.285z"/>
	<path d="M136.678,73h5.215c0.707,0,1.317-0.258,1.834-0.774c0.516-0.516,0.773-1.127,0.773-1.833v-5.214
		c0-0.706-0.258-1.316-0.773-1.833c-0.517-0.516-1.127-0.774-1.834-0.774h-5.215c-0.705,0-1.316,0.258-1.832,0.774
		c-0.516,0.516-0.773,1.127-0.773,1.833v5.214c0,0.706,0.257,1.317,0.773,1.833C135.361,72.742,135.973,73,136.678,73z"/>
	<path d="M115.822,52.143h5.214c0.707,0,1.317-0.258,1.834-0.774c0.515-0.516,0.772-1.126,0.772-1.833v-5.214
		c0-0.706-0.258-1.318-0.772-1.833c-0.517-0.516-1.127-0.774-1.834-0.774h-5.214c-0.706,0-1.317,0.258-1.834,0.774
		c-0.514,0.516-0.773,1.127-0.773,1.833v5.214c0,0.706,0.258,1.317,0.773,1.833C114.505,51.885,115.116,52.143,115.822,52.143z"/>
	<path d="M94.965,31.285h5.214c0.706,0,1.317-0.258,1.833-0.774c0.516-0.516,0.774-1.127,0.774-1.833v-5.214
		c0-0.706-0.259-1.317-0.774-1.833c-0.516-0.516-1.127-0.774-1.833-0.774h-5.214c-0.706,0-1.317,0.258-1.833,0.774
		c-0.516,0.516-0.774,1.127-0.774,1.833v5.214c0,0.706,0.258,1.317,0.774,1.833C93.648,31.027,94.259,31.285,94.965,31.285z"/>
	<path d="M136.678,52.143h5.215c0.707,0,1.317-0.258,1.834-0.774c0.516-0.516,0.773-1.126,0.773-1.833v-5.214
		c0-0.706-0.258-1.318-0.773-1.833c-0.517-0.516-1.127-0.774-1.834-0.774h-5.215c-0.705,0-1.316,0.258-1.832,0.774
		c-0.516,0.516-0.773,1.127-0.773,1.833v5.214c0,0.706,0.257,1.317,0.773,1.833C135.361,51.885,135.973,52.143,136.678,52.143z"/>
	<path d="M115.822,31.285h5.214c0.707,0,1.317-0.258,1.834-0.774c0.515-0.516,0.772-1.127,0.772-1.833v-5.214
		c0-0.706-0.258-1.317-0.772-1.833c-0.517-0.516-1.127-0.774-1.834-0.774h-5.214c-0.706,0-1.318,0.258-1.834,0.774
		c-0.514,0.516-0.773,1.127-0.773,1.833v5.214c0,0.706,0.258,1.317,0.773,1.833C114.505,31.027,115.116,31.285,115.822,31.285z"/>
	<path d="M136.678,31.285h5.215c0.707,0,1.317-0.258,1.834-0.774c0.516-0.516,0.773-1.127,0.773-1.833v-5.214
		c0-0.706-0.258-1.317-0.773-1.833c-0.517-0.516-1.127-0.774-1.834-0.774h-5.215c-0.705,0-1.316,0.258-1.832,0.774
		c-0.516,0.516-0.773,1.127-0.773,1.833v5.214c0,0.706,0.257,1.317,0.773,1.833C135.361,31.027,135.973,31.285,136.678,31.285z"/>
</g>
</svg>
