<?xml version="1.0" encoding="utf-8"?>
<!-- Generator: Adobe Illustrator 16.0.4, SVG Export Plug-In . SVG Version: 6.00 Build 0)  -->
<!DOCTYPE svg PUBLIC "-//W3C//DTD SVG 1.1//EN" "http://www.w3.org/Graphics/SVG/1.1/DTD/svg11.dtd">
<svg version="1.1" id="Capa_1" xmlns="http://www.w3.org/2000/svg" xmlns:xlink="http://www.w3.org/1999/xlink" x="0px" y="0px"
     width="216px" height="146px" viewBox="0 0 216 146" enable-background="new 0 0 216 146" xml:space="preserve">
<path d="M144.988,65.667L91.869,12.628c-1.956-2.064-4.399-3.096-7.333-3.096s-5.377,1.033-7.333,3.096l-6.192,6.111
	c-2.01,2.01-3.015,4.453-3.015,7.332c0,2.824,1.005,5.296,3.015,7.414L110.607,73L71.01,112.596c-2.01,2.01-3.015,4.454-3.015,7.333
	c0,2.824,1.005,5.296,3.015,7.414l6.192,6.11c2.01,2.01,4.455,3.015,7.333,3.015c2.879,0,5.324-1.005,7.333-3.015l53.12-53.039
	c2.01-2.118,3.016-4.59,3.016-7.414C148.004,70.121,146.998,67.677,144.988,65.667z"/>
</svg>
