<?xml version="1.0" encoding="utf-8"?>
<!-- Generator: Adobe Illustrator 16.0.4, SVG Export Plug-In . SVG Version: 6.00 Build 0)  -->
<!DOCTYPE svg PUBLIC "-//W3C//DTD SVG 1.1//EN" "http://www.w3.org/Graphics/SVG/1.1/DTD/svg11.dtd">
<svg version="1.1" id="Capa_1" xmlns="http://www.w3.org/2000/svg" xmlns:xlink="http://www.w3.org/1999/xlink" x="0px" y="0px"
     width="216px" height="146px" viewBox="0 0 216 146" enable-background="new 0 0 216 146" xml:space="preserve">
<path d="M162.18,41.592c-5.595-9.586-13.185-17.176-22.771-22.771c-9.588-5.595-20.055-8.392-31.408-8.392
	c-11.352,0-21.822,2.797-31.408,8.392c-9.587,5.594-17.177,13.184-22.772,22.771C48.225,51.179,45.428,61.649,45.428,73
	c0,11.352,2.798,21.82,8.392,31.408c5.595,9.585,13.185,17.176,22.772,22.771c9.587,5.595,20.056,8.392,31.408,8.392
	c11.352,0,21.822-2.797,31.408-8.392c9.586-5.594,17.176-13.185,22.771-22.771c5.594-9.587,8.391-20.057,8.391-31.408
	C170.57,61.648,167.773,51.178,162.18,41.592z M148.656,84.486l-8.311,8.312c-1.033,1.032-2.255,1.548-3.666,1.548
	c-1.412,0-2.636-0.516-3.666-1.548L108,67.785L82.989,92.798c-1.032,1.032-2.254,1.548-3.666,1.548
	c-1.413,0-2.635-0.516-3.667-1.548l-8.31-8.312c-1.032-1.03-1.548-2.254-1.548-3.666c0-1.411,0.516-2.633,1.548-3.666l36.989-36.988
	c1.032-1.032,2.254-1.548,3.666-1.548s2.636,0.516,3.666,1.548l36.989,36.988c1.031,1.033,1.548,2.255,1.548,3.666
	C150.204,82.232,149.688,83.456,148.656,84.486z"/>
</svg>
