<?xml version="1.0" encoding="utf-8"?>
<!-- Generator: Adobe Illustrator 16.0.4, SVG Export Plug-In . SVG Version: 6.00 Build 0)  -->
<!DOCTYPE svg PUBLIC "-//W3C//DTD SVG 1.1//EN" "http://www.w3.org/Graphics/SVG/1.1/DTD/svg11.dtd">
<svg version="1.1" id="Capa_1" xmlns="http://www.w3.org/2000/svg" xmlns:xlink="http://www.w3.org/1999/xlink" x="0px" y="0px"
     width="216px" height="146px" viewBox="0 0 216 146" enable-background="new 0 0 216 146" xml:space="preserve">
<path d="M105.393,73.041l39.595-39.596c2.011-2.01,3.015-4.468,3.015-7.374c0-2.906-1.004-5.363-3.015-7.373l-6.11-6.111
	c-2.009-2.009-4.467-3.014-7.372-3.014c-2.906,0-5.363,1.005-7.374,3.014l-53.12,53.039c-2.01,2.01-3.015,4.468-3.015,7.374
	s1.005,5.363,3.015,7.373l53.12,53.039c2.011,2.01,4.468,3.015,7.374,3.015c2.905,0,5.363-1.005,7.372-3.015l6.11-6.11
	c2.011-2.009,3.015-4.454,3.015-7.333c0-2.878-1.004-5.35-3.015-7.414L105.393,73.041z"/>
</svg>
