<?xml version="1.0" encoding="utf-8"?>
<!-- Generator: Adobe Illustrator 16.0.4, SVG Export Plug-In . SVG Version: 6.00 Build 0)  -->
<!DOCTYPE svg PUBLIC "-//W3C//DTD SVG 1.1//EN" "http://www.w3.org/Graphics/SVG/1.1/DTD/svg11.dtd">
<svg version="1.1" id="Capa_1" xmlns="http://www.w3.org/2000/svg" xmlns:xlink="http://www.w3.org/1999/xlink" x="0px" y="0px"
     width="216px" height="146px" viewBox="0 0 216 146" enable-background="new 0 0 216 146" xml:space="preserve">
<path d="M169.918,62.205c-0.436-0.571-1.005-0.911-1.711-1.019l-14.909-2.281c-0.815-2.607-1.929-5.268-3.341-7.984
	c0.977-1.358,2.443-3.272,4.398-5.744c1.955-2.472,3.34-4.277,4.155-5.418c0.435-0.598,0.651-1.222,0.651-1.874
	c0-0.76-0.189-1.357-0.57-1.792c-1.955-2.771-6.436-7.387-13.443-13.851c-0.65-0.543-1.33-0.814-2.035-0.814
	c-0.815,0-1.467,0.244-1.956,0.732l-11.568,8.718c-2.228-1.141-4.672-2.146-7.333-3.015l-2.281-14.99
	c-0.054-0.706-0.367-1.29-0.937-1.752c-0.571-0.462-1.235-0.692-1.997-0.692H98.955c-1.575,0-2.553,0.76-2.933,2.281
	c-0.706,2.715-1.494,7.766-2.363,15.153c-2.553,0.816-5.024,1.848-7.414,3.097l-11.243-8.718c-0.706-0.543-1.412-0.814-2.118-0.814
	c-1.195,0-3.761,1.941-7.699,5.825c-3.938,3.884-6.612,6.803-8.025,8.758c-0.489,0.706-0.733,1.331-0.733,1.874
	c0,0.652,0.271,1.304,0.814,1.955c3.639,4.4,6.545,8.147,8.718,11.244c-1.358,2.498-2.417,4.997-3.177,7.495L47.628,60.86
	c-0.597,0.109-1.113,0.462-1.548,1.06c-0.435,0.597-0.652,1.222-0.652,1.873v18.087c0,0.707,0.217,1.344,0.652,1.914
	c0.435,0.571,1.005,0.912,1.711,1.02l14.91,2.2c0.76,2.661,1.873,5.349,3.34,8.064c-0.977,1.358-2.444,3.272-4.399,5.744
	s-3.341,4.277-4.155,5.418c-0.435,0.599-0.652,1.222-0.652,1.874c0,0.706,0.19,1.33,0.57,1.873
	c2.118,2.934,6.599,7.497,13.443,13.688c0.598,0.598,1.277,0.896,2.037,0.896c0.815,0,1.494-0.244,2.037-0.732l11.488-8.719
	c2.228,1.141,4.672,2.146,7.333,3.016l2.281,14.99c0.055,0.706,0.367,1.29,0.937,1.752c0.57,0.463,1.236,0.692,1.996,0.692h18.087
	c1.577,0,2.554-0.76,2.935-2.281c0.705-2.716,1.492-7.766,2.361-15.153c2.553-0.815,5.025-1.848,7.414-3.097l11.244,8.8
	c0.76,0.488,1.467,0.732,2.118,0.732c1.194,0,3.747-1.927,7.657-5.784c3.912-3.856,6.6-6.79,8.065-8.8
	c0.489-0.543,0.734-1.167,0.734-1.873s-0.271-1.387-0.815-2.037c-3.91-4.78-6.816-8.527-8.718-11.243
	c1.086-2.01,2.146-4.481,3.178-7.414l15.072-2.28c0.651-0.109,1.196-0.463,1.63-1.061s0.65-1.223,0.65-1.874V64.119
	C170.57,63.413,170.354,62.776,169.918,62.205z M122.747,87.746c-4.073,4.074-8.989,6.111-14.747,6.111s-10.673-2.037-14.747-6.111
	c-4.073-4.073-6.11-8.988-6.11-14.746s2.036-10.673,6.11-14.747c4.074-4.073,8.99-6.11,14.747-6.11
	c5.758,0,10.674,2.037,14.747,6.11c4.073,4.074,6.11,8.989,6.11,14.747S126.82,83.673,122.747,87.746z"/>
</svg>
