<?xml version="1.0" encoding="utf-8"?>
<!-- Generator: Adobe Illustrator 16.0.4, SVG Export Plug-In . SVG Version: 6.00 Build 0)  -->
<!DOCTYPE svg PUBLIC "-//W3C//DTD SVG 1.1//EN" "http://www.w3.org/Graphics/SVG/1.1/DTD/svg11.dtd">
<svg version="1.1" id="Capa_1" xmlns="http://www.w3.org/2000/svg" xmlns:xlink="http://www.w3.org/1999/xlink" x="0px" y="0px"
     width="216px" height="146px" viewBox="0 0 216 146" enable-background="new 0 0 216 146" xml:space="preserve">
<g>
	<path d="M124.865,102.207c0-0.543-0.19-1.086-0.57-1.629c-3.042-3.641-5.486-6.764-7.333-9.37c1.14-2.226,2.009-4.29,2.606-6.19
		l12.629-1.955c0.49-0.055,0.924-0.34,1.304-0.855c0.38-0.518,0.569-1.046,0.569-1.589V65.545c0-0.597-0.189-1.127-0.569-1.588
		s-0.842-0.747-1.385-0.854l-12.384-1.874c-0.599-1.847-1.522-4.075-2.771-6.681c0.814-1.196,2.037-2.826,3.667-4.889
		c1.629-2.064,2.771-3.53,3.422-4.399c0.38-0.543,0.57-1.06,0.57-1.548c0-1.467-3.911-5.812-11.731-13.036
		c-0.543-0.434-1.113-0.651-1.712-0.651c-0.651,0-1.194,0.188-1.63,0.57l-9.614,7.251c-2.226-1.14-4.263-1.982-6.11-2.526
		l-1.874-12.465c-0.053-0.543-0.325-1.019-0.814-1.426c-0.489-0.407-1.032-0.611-1.63-0.611H74.352
		c-1.249,0-2.064,0.652-2.444,1.955c-0.652,2.499-1.276,6.682-1.874,12.547c-2.335,0.76-4.426,1.629-6.273,2.607l-9.369-7.332
		c-0.543-0.381-1.113-0.57-1.711-0.57c-1.033,0-3.178,1.602-6.437,4.807c-3.259,3.204-5.487,5.621-6.681,7.251
		c-0.381,0.435-0.57,0.978-0.57,1.63c0,0.488,0.189,1.031,0.57,1.629c3.041,3.64,5.485,6.763,7.332,9.369
		c-1.14,2.228-2.009,4.291-2.606,6.192L31.66,62.857c-0.489,0.054-0.923,0.339-1.304,0.854c-0.38,0.517-0.57,1.046-0.57,1.589
		v15.072c0,0.598,0.19,1.128,0.57,1.589c0.381,0.462,0.842,0.72,1.386,0.774l12.384,1.955c0.652,2.064,1.603,4.291,2.852,6.681
		c-0.869,1.196-2.145,2.853-3.829,4.97c-1.685,2.119-2.798,3.559-3.341,4.318c-0.38,0.543-0.57,1.061-0.57,1.548
		c0,1.468,3.911,5.812,11.732,13.036c0.543,0.434,1.113,0.65,1.711,0.65c0.706,0,1.249-0.188,1.629-0.569l9.614-7.251
		c2.226,1.141,4.263,1.982,6.11,2.525l1.874,12.466c0.054,0.543,0.326,1.019,0.814,1.426c0.489,0.407,1.032,0.61,1.63,0.61h15.153
		c1.25,0,2.064-0.651,2.444-1.955c0.652-2.554,1.276-6.763,1.874-12.629c2.172-0.65,4.263-1.494,6.273-2.524l9.37,7.332
		c0.543,0.381,1.113,0.569,1.711,0.569c1.032,0,3.165-1.615,6.396-4.848c3.231-3.23,5.472-5.662,6.722-7.292
		C124.675,103.375,124.865,102.859,124.865,102.207z M96.675,87.706c-4.073,4.073-8.989,6.11-14.746,6.11
		c-5.758,0-10.674-2.037-14.747-6.11c-4.073-4.073-6.11-8.989-6.11-14.747c0-5.757,2.037-10.673,6.11-14.746
		c4.073-4.074,8.989-6.11,14.747-6.11c5.757,0,10.673,2.036,14.746,6.11c4.074,4.073,6.11,8.989,6.11,14.746
		C102.785,78.717,100.749,83.633,96.675,87.706z"/>
	<path d="M174.074,106.445c-0.705-1.575-1.52-2.987-2.443-4.237c2.77-6.138,4.154-9.886,4.154-11.243
		c0-0.216-0.107-0.407-0.325-0.57c-6.519-3.802-9.886-5.703-10.103-5.703l-0.489,0.164c-2.226,2.227-4.726,5.269-7.495,9.125
		c-1.086-0.108-1.9-0.164-2.443-0.164c-0.545,0-1.358,0.056-2.445,0.164c-0.758-1.142-2.172-2.975-4.235-5.5
		s-3.313-3.789-3.748-3.789c-0.108,0-0.923,0.435-2.444,1.305c-1.521,0.869-3.123,1.792-4.807,2.771
		c-1.686,0.979-2.634,1.521-2.852,1.63c-0.219,0.162-0.326,0.353-0.326,0.569c0,1.358,1.385,5.104,4.154,11.243
		c-0.922,1.25-1.737,2.662-2.443,4.236c-8.094,0.814-12.141,1.656-12.141,2.525v11.406c0,0.869,4.047,1.711,12.141,2.525
		c0.65,1.466,1.466,2.879,2.443,4.235c-2.769,6.138-4.154,9.886-4.154,11.244c0,0.216,0.107,0.407,0.326,0.57
		c6.625,3.856,9.994,5.784,10.103,5.784c0.435,0,1.685-1.276,3.748-3.829c2.063-2.554,3.476-4.399,4.235-5.54
		c1.086,0.107,1.9,0.162,2.445,0.162c0.543,0,1.357-0.055,2.443-0.162c0.759,1.141,2.172,2.986,4.236,5.54
		c2.063,2.553,3.312,3.829,3.748,3.829c0.108,0,3.477-1.929,10.103-5.784c0.218-0.163,0.325-0.353,0.325-0.57
		c0-1.358-1.385-5.106-4.154-11.244c0.977-1.356,1.792-2.769,2.443-4.235c8.094-0.814,12.141-1.656,12.141-2.525v-11.406
		C186.215,108.102,182.168,107.26,174.074,106.445z M162.301,122.047c-2.035,2.037-4.494,3.057-7.373,3.057s-5.337-1.02-7.373-3.057
		c-2.037-2.037-3.056-4.494-3.056-7.373c0-2.824,1.033-5.27,3.097-7.333s4.508-3.096,7.332-3.096s5.27,1.032,7.334,3.096
		c2.063,2.063,3.096,4.509,3.096,7.333C165.357,117.553,164.339,120.01,162.301,122.047z"/>
	<path d="M174.074,23.016c-0.705-1.575-1.52-2.987-2.443-4.237c2.77-6.137,4.154-9.885,4.154-11.243c0-0.216-0.107-0.407-0.325-0.57
		c-6.519-3.802-9.886-5.703-10.103-5.703l-0.489,0.163c-2.226,2.228-4.726,5.269-7.495,9.125c-1.086-0.108-1.9-0.163-2.443-0.163
		c-0.545,0-1.358,0.055-2.445,0.163c-0.758-1.141-2.172-2.974-4.235-5.499c-2.063-2.526-3.313-3.789-3.748-3.789
		c-0.108,0-0.923,0.434-2.444,1.304c-1.521,0.87-3.123,1.793-4.807,2.771c-1.686,0.978-2.634,1.521-2.852,1.629
		c-0.219,0.163-0.326,0.353-0.326,0.57c0,1.358,1.385,5.106,4.154,11.243c-0.922,1.25-1.737,2.662-2.443,4.237
		c-8.094,0.814-12.141,1.656-12.141,2.525v11.406c0,0.869,4.047,1.711,12.141,2.525c0.65,1.466,1.466,2.879,2.443,4.237
		c-2.769,6.138-4.154,9.885-4.154,11.243c0,0.216,0.107,0.407,0.326,0.57c6.625,3.856,9.994,5.784,10.103,5.784
		c0.435,0,1.685-1.276,3.748-3.829c2.063-2.553,3.476-4.399,4.235-5.54c1.086,0.108,1.9,0.163,2.445,0.163
		c0.543,0,1.357-0.055,2.443-0.163c0.759,1.141,2.172,2.987,4.236,5.54c2.063,2.553,3.312,3.829,3.748,3.829
		c0.108,0,3.477-1.928,10.103-5.784c0.218-0.163,0.325-0.353,0.325-0.57c0-1.358-1.385-5.105-4.154-11.243
		c0.977-1.358,1.792-2.77,2.443-4.237c8.094-0.814,12.141-1.656,12.141-2.525V25.542C186.215,24.673,182.168,23.831,174.074,23.016z
		 M162.301,38.618c-2.035,2.037-4.494,3.056-7.373,3.056s-5.337-1.019-7.373-3.056c-2.037-2.036-3.056-4.494-3.056-7.373
		c0-2.824,1.033-5.269,3.097-7.333s4.508-3.096,7.332-3.096s5.27,1.033,7.334,3.096c2.063,2.064,3.096,4.509,3.096,7.333
		C165.357,34.124,164.339,36.582,162.301,38.618z"/>
</g>
</svg>
