<?xml version="1.0" encoding="utf-8"?>
<!-- Generator: Adobe Illustrator 16.0.4, SVG Export Plug-In . SVG Version: 6.00 Build 0)  -->
<!DOCTYPE svg PUBLIC "-//W3C//DTD SVG 1.1//EN" "http://www.w3.org/Graphics/SVG/1.1/DTD/svg11.dtd">
<svg version="1.1" id="Capa_1" xmlns="http://www.w3.org/2000/svg" xmlns:xlink="http://www.w3.org/1999/xlink" x="0px" y="0px"
     width="216px" height="146px" viewBox="0 0 216 146" enable-background="new 0 0 216 146" xml:space="preserve">
<path d="M171.225,36.366c-6.519-8.011-15.373-14.339-26.561-18.983c-11.188-4.644-23.41-6.966-36.663-6.966
	c-9.886,0-19.337,1.371-28.353,4.114c-9.016,2.743-16.783,6.45-23.301,11.121c-6.519,4.671-11.705,10.225-15.562,16.661
	S35,55.498,35,62.559c0,8.147,2.457,15.781,7.373,22.896s11.637,13.09,20.165,17.924c-0.598,2.172-1.304,4.236-2.119,6.191
	s-1.548,3.559-2.2,4.808c-0.652,1.249-1.534,2.634-2.648,4.155c-1.113,1.521-1.955,2.594-2.525,3.218
	c-0.57,0.625-1.507,1.658-2.811,3.096c-1.303,1.44-2.145,2.377-2.525,2.812c-0.055,0.026-0.272,0.271-0.652,0.733
	c-0.38,0.461-0.57,0.691-0.57,0.691l-0.489,0.732c-0.272,0.408-0.394,0.666-0.367,0.773c0.027,0.107-0.027,0.38-0.163,0.814
	c-0.136,0.435-0.122,0.761,0.041,0.979v0.081c0.218,0.978,0.693,1.765,1.426,2.362c0.733,0.597,1.562,0.842,2.485,0.732
	c3.531-0.435,6.627-1.03,9.288-1.791c14.231-3.641,26.724-10.211,37.478-19.718c4.073,0.435,8.011,0.652,11.813,0.652
	c13.253,0,25.475-2.322,36.663-6.968c11.188-4.643,20.042-10.971,26.56-18.981C177.741,80.742,181,72.01,181,62.559
	C181,53.108,177.741,44.376,171.225,36.366z"/>
</svg>
