<?xml version="1.0" encoding="utf-8"?>
<!-- Generator: Adobe Illustrator 16.0.4, SVG Export Plug-In . SVG Version: 6.00 Build 0)  -->
<!DOCTYPE svg PUBLIC "-//W3C//DTD SVG 1.1//EN" "http://www.w3.org/Graphics/SVG/1.1/DTD/svg11.dtd">
<svg version="1.1" id="Capa_1" xmlns="http://www.w3.org/2000/svg" xmlns:xlink="http://www.w3.org/1999/xlink" x="0px" y="0px"
     width="216px" height="146px" viewBox="0 0 216 146" enable-background="new 0 0 216 146" xml:space="preserve">
<g>
	<path d="M169.514,23.464c0-0.706-0.272-1.33-0.816-1.874l-9.288-9.288c-0.543-0.544-1.167-0.815-1.873-0.815
		c-0.707,0-1.331,0.272-1.874,0.815l-27.051,27.049l-11.73-11.732c-1.031-1.032-2.255-1.548-3.667-1.548s-2.634,0.516-3.666,1.548
		c-1.032,1.032-1.548,2.254-1.548,3.666v36.5c0,1.413,0.516,2.635,1.548,3.667c1.032,1.032,2.254,1.548,3.666,1.548h36.5
		c1.412,0,2.636-0.516,3.667-1.548c1.032-1.032,1.549-2.254,1.549-3.667c0-1.412-0.517-2.634-1.549-3.666l-11.732-11.732
		l27.051-27.049C169.242,24.795,169.514,24.17,169.514,23.464z"/>
	<path d="M102.786,73.001h-36.5c-1.412,0-2.634,0.516-3.666,1.549c-1.032,1.031-1.548,2.254-1.548,3.666s0.516,2.634,1.548,3.666
		l11.732,11.731l-27.049,27.05c-0.544,0.543-0.815,1.168-0.815,1.873c0,0.707,0.271,1.332,0.815,1.875l9.287,9.286
		c0.544,0.543,1.168,0.814,1.874,0.814s1.331-0.271,1.874-0.814l27.049-27.049l11.732,11.732c1.032,1.031,2.254,1.548,3.666,1.548
		c1.413,0,2.635-0.517,3.667-1.548c1.032-1.031,1.548-2.254,1.548-3.666v-36.5c0-1.412-0.516-2.635-1.547-3.665
		C105.421,73.517,104.199,73.001,102.786,73.001z"/>
</g>
</svg>
