<?xml version="1.0" encoding="utf-8"?>
<!-- Generator: Adobe Illustrator 16.0.4, SVG Export Plug-In . SVG Version: 6.00 Build 0)  -->
<!DOCTYPE svg PUBLIC "-//W3C//DTD SVG 1.1//EN" "http://www.w3.org/Graphics/SVG/1.1/DTD/svg11.dtd">
<svg version="1.1" id="Capa_1" xmlns="http://www.w3.org/2000/svg" xmlns:xlink="http://www.w3.org/1999/xlink" x="0px" y="0px"
     width="216px" height="146px" viewBox="0 0 216 146" enable-background="new 0 0 216 146" xml:space="preserve">
<path d="M179.941,10.429c-0.707-0.326-1.576,0.027-2.607,1.059l-57.845,57.844c-0.49,0.435-0.843,0.951-1.06,1.548V13.034
	c0-1.412-0.354-2.281-1.061-2.607c-0.706-0.326-1.574,0.027-2.607,1.059L56.917,69.332c-0.49,0.435-0.843,0.951-1.06,1.548V15.641
	c0-1.413-0.516-2.635-1.548-3.667c-1.032-1.032-2.254-1.548-3.666-1.548H40.214c-1.413,0-2.635,0.516-3.667,1.548
	c-1.032,1.033-1.548,2.255-1.548,3.667v114.714c0,1.412,0.516,2.634,1.548,3.666c1.033,1.031,2.255,1.548,3.667,1.548h10.428
	c1.412,0,2.634-0.517,3.666-1.548c1.032-1.032,1.548-2.254,1.548-3.666V75.116c0.218,0.543,0.571,1.06,1.06,1.548l57.846,57.846
	c1.032,1.033,1.9,1.387,2.606,1.061c0.707-0.326,1.06-1.195,1.06-2.607V75.117c0.219,0.543,0.571,1.061,1.061,1.548l57.846,57.847
	c1.031,1.032,1.9,1.386,2.607,1.06c0.705-0.326,1.059-1.195,1.059-2.607V13.036C181,11.624,180.646,10.755,179.941,10.429z"/>
</svg>
