<?xml version="1.0" encoding="utf-8"?>
<!-- Generator: Adobe Illustrator 16.0.4, SVG Export Plug-In . SVG Version: 6.00 Build 0)  -->
<!DOCTYPE svg PUBLIC "-//W3C//DTD SVG 1.1//EN" "http://www.w3.org/Graphics/SVG/1.1/DTD/svg11.dtd">
<svg version="1.1" id="Capa_1" xmlns="http://www.w3.org/2000/svg" xmlns:xlink="http://www.w3.org/1999/xlink" x="0px" y="0px"
     width="216px" height="146px" viewBox="0 0 216 146" enable-background="new 0 0 216 146" xml:space="preserve">
<path d="M148.654,10.429c-0.705-0.326-1.574,0.027-2.607,1.059L88.203,69.333c-0.49,0.435-0.843,0.951-1.06,1.548V15.642
	c0-1.413-0.516-2.635-1.548-3.667c-1.032-1.032-2.254-1.548-3.666-1.548H71.5c-1.413,0-2.635,0.516-3.667,1.548
	c-1.032,1.033-1.548,2.255-1.548,3.667v114.713c0,1.412,0.516,2.635,1.548,3.666c1.033,1.033,2.255,1.549,3.667,1.549h10.428
	c1.412,0,2.634-0.516,3.666-1.549c1.032-1.031,1.548-2.254,1.548-3.666V75.117c0.218,0.543,0.571,1.061,1.06,1.548l57.845,57.847
	c1.033,1.032,1.902,1.387,2.607,1.061c0.707-0.326,1.061-1.195,1.061-2.607V13.036C149.715,11.624,149.361,10.755,148.654,10.429z"
	/>
</svg>
