<?xml version="1.0" encoding="utf-8"?>
<!-- Generator: Adobe Illustrator 16.0.4, SVG Export Plug-In . SVG Version: 6.00 Build 0)  -->
<!DOCTYPE svg PUBLIC "-//W3C//DTD SVG 1.1//EN" "http://www.w3.org/Graphics/SVG/1.1/DTD/svg11.dtd">
<svg version="1.1" id="Capa_1" xmlns="http://www.w3.org/2000/svg" xmlns:xlink="http://www.w3.org/1999/xlink" x="0px" y="0px"
     width="216px" height="146px" viewBox="0 0 216 146" enable-background="new 0 0 216 146" xml:space="preserve">
<path d="M169.268,69.335l-57.846-57.846c-1.031-1.032-1.9-1.385-2.607-1.059c-0.706,0.326-1.059,1.195-1.059,2.607v57.846
	c-0.271-0.597-0.624-1.113-1.059-1.548L48.851,11.489c-1.032-1.032-1.901-1.385-2.607-1.059c-0.706,0.326-1.059,1.195-1.059,2.607
	v119.928c0,1.412,0.353,2.281,1.059,2.607s1.575-0.028,2.607-1.061l57.846-57.844c0.434-0.488,0.788-1.006,1.059-1.549v57.847
	c0,1.412,0.353,2.28,1.059,2.606c0.707,0.326,1.576-0.027,2.607-1.06l57.846-57.846c1.031-1.032,1.549-2.255,1.549-3.666
	C170.816,71.589,170.299,70.367,169.268,69.335z"/>
</svg>
