<?xml version="1.0" encoding="utf-8"?>
<!-- Generator: Adobe Illustrator 16.0.3, SVG Export Plug-In . SVG Version: 6.00 Build 0)  -->
<!DOCTYPE svg PUBLIC "-//W3C//DTD SVG 1.1//EN" "http://www.w3.org/Graphics/SVG/1.1/DTD/svg11.dtd">
<svg version="1.1" id="Calque_1" xmlns="http://www.w3.org/2000/svg" xmlns:xlink="http://www.w3.org/1999/xlink" x="0px" y="0px"
	 width="160px" height="130px" viewBox="0 0 160 130" enable-background="new 0 0 160 130" xml:space="preserve">
<g id="Son_n3">
	<path fill="#1E1E1C" d="M85.617,121.117L41.042,89.341H2.515V40.81h38.479L85.684,9.042L85.617,121.117z M4.81,87.047h36.968
		l41.551,29.617l0.057-103.177L41.726,43.104H4.81V87.047z"/>
	<path fill="#1E1E1C" d="M100.126,89.722l-0.644-2.202c8.777-2.571,14.91-10.752,14.91-19.896c0-9.145-6.133-17.328-14.91-19.899
		l0.644-2.202c9.749,2.858,16.562,11.943,16.562,22.101C116.688,77.779,109.875,86.865,100.126,89.722"/>
	<path fill="#1E1E1C" d="M108.527,105.501l-0.645-2.202c15.739-4.609,26.731-19.281,26.731-35.678
		c0-16.394-10.992-31.064-26.731-35.673l0.645-2.202c16.709,4.893,28.381,20.469,28.381,37.875
		C136.908,85.031,125.236,100.605,108.527,105.501"/>
	<path fill="#1E1E1C" d="M117.066,121.882l-0.644-2.202c22.967-6.727,39.011-28.133,39.011-52.057
		c0-23.925-16.044-45.332-39.011-52.058l0.644-2.203c23.94,7.01,40.662,29.324,40.662,54.26
		C157.729,92.561,141.007,114.871,117.066,121.882"/>
</g>
</svg>
