<?xml version="1.0" encoding="utf-8"?>
<!-- Generator: Adobe Illustrator 16.0.4, SVG Export Plug-In . SVG Version: 6.00 Build 0)  -->
<!DOCTYPE svg PUBLIC "-//W3C//DTD SVG 1.1//EN" "http://www.w3.org/Graphics/SVG/1.1/DTD/svg11.dtd">
<svg version="1.1" id="Capa_1" xmlns="http://www.w3.org/2000/svg" xmlns:xlink="http://www.w3.org/1999/xlink" x="0px" y="0px"
     width="216px" height="146px" viewBox="0 0 216 146" enable-background="new 0 0 216 146" xml:space="preserve">
<g>
	<path d="M92.357,10.429H50.643c-1.413,0-2.635,0.516-3.667,1.548c-1.032,1.032-1.548,2.254-1.548,3.666v114.714
		c0,1.412,0.516,2.635,1.548,3.666c1.033,1.032,2.255,1.549,3.667,1.549h41.715c1.412,0,2.634-0.517,3.666-1.549
		c1.032-1.031,1.548-2.254,1.548-3.666V15.643c0-1.413-0.516-2.634-1.549-3.666C94.991,10.945,93.769,10.429,92.357,10.429z"/>
	<path d="M169.023,11.977c-1.032-1.032-2.254-1.548-3.666-1.548h-41.715c-1.412,0-2.635,0.516-3.666,1.548
		c-1.033,1.032-1.549,2.254-1.549,3.666v114.714c0,1.412,0.516,2.635,1.549,3.666c1.031,1.032,2.254,1.549,3.666,1.549h41.715
		c1.412,0,2.634-0.517,3.666-1.549c1.031-1.031,1.547-2.254,1.547-3.666V15.643C170.57,14.23,170.055,13.009,169.023,11.977z"/>
</g>
</svg>
