<?xml version="1.0" encoding="utf-8"?>
<!-- Generator: Adobe Illustrator 16.0.3, SVG Export Plug-In . SVG Version: 6.00 Build 0)  -->
<!DOCTYPE svg PUBLIC "-//W3C//DTD SVG 1.1//EN" "http://www.w3.org/Graphics/SVG/1.1/DTD/svg11.dtd">
<svg version="1.1" id="Calque_1" xmlns="http://www.w3.org/2000/svg" xmlns:xlink="http://www.w3.org/1999/xlink" x="0px" y="0px"
	 width="140px" height="140px" viewBox="0 0 140 140" enable-background="new 0 0 140 140" xml:space="preserve">
<g id="Bt_fermer_plein_ecran">
	<polygon fill="#1E1E1C" points="44.33,18.855 46.624,18.855 46.624,46.77 18.712,46.77 18.712,44.475 44.33,44.475 	"/>
	<polygon fill="#1E1E1C" points="18.821,93.547 46.732,93.547 46.732,121.461 44.438,121.461 44.438,95.842 18.821,95.842 	"/>
	<polygon fill="#1E1E1C" points="93.404,93.553 121.315,93.553 121.315,95.846 95.699,95.846 95.699,121.465 93.404,121.465 	"/>
	<polygon fill="#1E1E1C" points="93.51,18.855 95.803,18.855 95.803,44.475 121.421,44.475 121.421,46.77 93.51,46.77 	"/>
	
		<rect x="108.146" y="10.286" transform="matrix(0.7069 0.7073 -0.7073 0.7069 53.9511 -68.2234)" fill="#1E1E1C" width="2.295" height="41.399"/>
	
		<rect x="29.746" y="88.609" transform="matrix(-0.7068 -0.7074 0.7074 -0.7068 -24.654 208.5529)" fill="#1E1E1C" width="2.294" height="41.553"/>
	
		<rect x="88.467" y="108.242" transform="matrix(-0.7071 -0.7071 0.7071 -0.7071 109.1369 263.9833)" fill="#1E1E1C" width="41.548" height="2.294"/>
	
		<rect x="10.141" y="29.839" transform="matrix(-0.7071 -0.7071 0.7071 -0.7071 30.7352 74.7027)" fill="#1E1E1C" width="41.399" height="2.293"/>
</g>
</svg>
