<?xml version="1.0" encoding="utf-8"?>
<!-- Generator: Adobe Illustrator 16.0.4, SVG Export Plug-In . SVG Version: 6.00 Build 0)  -->
<!DOCTYPE svg PUBLIC "-//W3C//DTD SVG 1.1//EN" "http://www.w3.org/Graphics/SVG/1.1/DTD/svg11.dtd">
<svg version="1.1" id="Capa_1" xmlns="http://www.w3.org/2000/svg" xmlns:xlink="http://www.w3.org/1999/xlink" x="0px" y="0px"
     width="216px" height="146px" viewBox="0 0 216 146" enable-background="new 0 0 216 146" xml:space="preserve">
<path d="M169.755,10.429c-0.705-0.326-1.573,0.027-2.606,1.059l-57.847,57.844c-0.434,0.435-0.788,0.951-1.059,1.548V13.034
	c0-1.412-0.353-2.281-1.059-2.607s-1.575,0.027-2.607,1.059L46.731,69.332c-1.032,1.032-1.548,2.254-1.548,3.666
	s0.516,2.635,1.548,3.666l57.846,57.846c1.032,1.033,1.901,1.387,2.607,1.061s1.059-1.195,1.059-2.607V75.117
	c0.272,0.543,0.625,1.061,1.059,1.548l57.847,57.847c1.033,1.032,1.901,1.386,2.606,1.06c0.707-0.326,1.06-1.195,1.06-2.607V13.036
	C170.814,11.624,170.462,10.755,169.755,10.429z"/>
</svg>
