<?xml version="1.0" encoding="utf-8"?>
<!-- Generator: Adobe Illustrator 16.0.4, SVG Export Plug-In . SVG Version: 6.00 Build 0)  -->
<!DOCTYPE svg PUBLIC "-//W3C//DTD SVG 1.1//EN" "http://www.w3.org/Graphics/SVG/1.1/DTD/svg11.dtd">
<svg version="1.1" id="Capa_1" xmlns="http://www.w3.org/2000/svg" xmlns:xlink="http://www.w3.org/1999/xlink" x="0px" y="0px"
     width="216px" height="146px" viewBox="0 0 216 146" enable-background="new 0 0 216 146" xml:space="preserve">
<path d="M179.452,11.976c-1.032-1.032-2.255-1.548-3.667-1.548h-10.428c-1.412,0-2.635,0.516-3.666,1.548
	c-1.033,1.033-1.549,2.255-1.549,3.667v55.239c-0.272-0.597-0.625-1.113-1.06-1.548l-57.846-57.846
	c-1.032-1.032-1.9-1.385-2.607-1.059c-0.706,0.326-1.059,1.195-1.059,2.607v57.846c-0.271-0.597-0.624-1.113-1.059-1.548
	L38.666,11.488c-1.032-1.032-1.901-1.385-2.607-1.059C35.353,10.755,35,11.624,35,13.036v119.928c0,1.412,0.354,2.282,1.06,2.608
	s1.575-0.028,2.607-1.061l57.845-57.846c0.434-0.487,0.788-1.004,1.059-1.547v57.846c0,1.412,0.353,2.281,1.059,2.607
	c0.706,0.325,1.575-0.029,2.607-1.061l57.846-57.846c0.435-0.488,0.788-1.006,1.06-1.549v55.239c0,1.412,0.516,2.634,1.549,3.666
	c1.031,1.032,2.254,1.548,3.666,1.548h10.428c1.412,0,2.635-0.516,3.667-1.548s1.548-2.254,1.548-3.666V15.643
	C181,14.229,180.484,13.008,179.452,11.976z"/>
</svg>
