<?xml version="1.0" encoding="utf-8"?>
<!-- Generator: Adobe Illustrator 16.0.4, SVG Export Plug-In . SVG Version: 6.00 Build 0)  -->
<!DOCTYPE svg PUBLIC "-//W3C//DTD SVG 1.1//EN" "http://www.w3.org/Graphics/SVG/1.1/DTD/svg11.dtd">
<svg version="1.1" id="Capa_1" xmlns="http://www.w3.org/2000/svg" xmlns:xlink="http://www.w3.org/1999/xlink" x="0px" y="0px"
     width="216px" height="146px" viewBox="0 0 216 146" enable-background="new 0 0 216 146" xml:space="preserve">
<g>
	<path d="M173.504,96.139c-1.52-1.521-3.367-2.281-5.539-2.281H130.16l-11.08,11.08c-3.15,3.041-6.844,4.562-11.08,4.562
		c-4.236,0-7.93-1.52-11.08-4.562l-10.999-11.08H48.036c-2.172,0-4.019,0.761-5.54,2.281s-2.281,3.367-2.281,5.54v26.071
		c0,2.173,0.76,4.02,2.281,5.54s3.368,2.281,5.54,2.281h119.929c2.172,0,4.02-0.761,5.539-2.281c1.521-1.521,2.281-3.367,2.281-5.54
		v-26.071C175.785,99.506,175.025,97.659,173.504,96.139z M142.953,123.595c-1.033,1.032-2.256,1.548-3.668,1.548
		s-2.633-0.516-3.666-1.548c-1.031-1.032-1.547-2.254-1.547-3.666c0-1.411,0.516-2.635,1.547-3.666
		c1.033-1.032,2.254-1.549,3.666-1.549s2.635,0.517,3.668,1.549c1.031,1.031,1.547,2.255,1.547,3.666
		C144.5,121.341,143.984,122.562,142.953,123.595z M163.809,123.595c-1.031,1.032-2.254,1.548-3.666,1.548s-2.634-0.516-3.666-1.548
		c-1.031-1.032-1.547-2.254-1.547-3.666c0-1.411,0.516-2.635,1.547-3.666c1.032-1.032,2.254-1.549,3.666-1.549
		s2.635,0.517,3.666,1.549c1.032,1.031,1.549,2.255,1.549,3.666C165.357,121.341,164.842,122.562,163.809,123.595z"/>
	<path d="M104.334,97.523c0.978,1.031,2.2,1.547,3.666,1.547c1.467,0,2.688-0.516,3.666-1.547l36.5-36.5
		c1.684-1.575,2.064-3.476,1.141-5.703c-0.922-2.118-2.525-3.177-4.807-3.178h-20.857v-36.5c0-1.412-0.517-2.634-1.547-3.666
		c-1.033-1.032-2.255-1.548-3.666-1.548H97.571c-1.412,0-2.634,0.516-3.666,1.548c-1.032,1.032-1.548,2.254-1.548,3.666v36.5H71.5
		c-2.282,0-3.884,1.06-4.807,3.178c-0.923,2.226-0.543,4.128,1.141,5.703L104.334,97.523z"/>
</g>
</svg>
