<?xml version="1.0" encoding="utf-8"?>
<!-- Generator: Adobe Illustrator 16.0.4, SVG Export Plug-In . SVG Version: 6.00 Build 0)  -->
<!DOCTYPE svg PUBLIC "-//W3C//DTD SVG 1.1//EN" "http://www.w3.org/Graphics/SVG/1.1/DTD/svg11.dtd">
<svg version="1.1" id="Capa_1" xmlns="http://www.w3.org/2000/svg" xmlns:xlink="http://www.w3.org/1999/xlink" x="0px" y="0px"
     width="216px" height="146px" viewBox="0 0 216 146" enable-background="new 0 0 216 146" xml:space="preserve">
<g>
	<path d="M115.822,99.072h-15.643c-2.173,0-4.019,0.76-5.54,2.281c-1.521,1.521-2.281,3.367-2.281,5.539v15.645
		c0,2.172,0.76,4.02,2.281,5.54c1.52,1.521,3.367,2.28,5.54,2.28h15.643c2.173,0,4.019-0.76,5.539-2.28
		c1.521-1.521,2.281-3.368,2.281-5.54v-15.645c0-2.172-0.76-4.019-2.281-5.539C119.842,99.833,117.995,99.072,115.822,99.072z"/>
	<path d="M115.822,57.358h-15.643c-2.173,0-4.019,0.76-5.54,2.281s-2.281,3.367-2.281,5.54v15.644c0,2.173,0.76,4.019,2.281,5.539
		c1.52,1.521,3.367,2.281,5.54,2.281h15.643c2.173,0,4.019-0.76,5.539-2.281c1.521-1.52,2.281-3.366,2.281-5.539V65.179
		c0-2.173-0.76-4.02-2.281-5.54C119.842,58.118,117.995,57.358,115.822,57.358z"/>
	<path d="M121.361,17.924c-1.52-1.52-3.366-2.281-5.539-2.281h-15.643c-2.173,0-4.019,0.76-5.54,2.281s-2.281,3.368-2.281,5.54
		v15.644c0,2.173,0.76,4.019,2.281,5.54c1.52,1.52,3.367,2.281,5.54,2.281h15.643c2.173,0,4.019-0.76,5.539-2.281
		c1.521-1.52,2.281-3.367,2.281-5.54V23.464C123.643,21.292,122.883,19.445,121.361,17.924z"/>
</g>
</svg>
