<?xml version="1.0" encoding="utf-8"?>
<!-- Generator: Adobe Illustrator 16.0.4, SVG Export Plug-In . SVG Version: 6.00 Build 0)  -->
<!DOCTYPE svg PUBLIC "-//W3C//DTD SVG 1.1//EN" "http://www.w3.org/Graphics/SVG/1.1/DTD/svg11.dtd">
<svg version="1.1" id="Capa_1" xmlns="http://www.w3.org/2000/svg" xmlns:xlink="http://www.w3.org/1999/xlink" x="0px" y="0px"
     width="216px" height="146px" viewBox="0 0 216 146" enable-background="new 0 0 216 146" xml:space="preserve">
<path d="M185.318,26.968c-0.869-1.847-2.16-3.327-3.871-4.439c-1.711-1.113-3.6-1.67-5.663-1.67h-62.57
	c-3.151,0-5.758,1.194-7.822,3.584l-73,83.429c-1.358,1.521-2.186,3.3-2.485,5.337c-0.299,2.037-0.041,3.978,0.774,5.825
	c0.869,1.846,2.159,3.326,3.87,4.439c1.711,1.113,3.599,1.67,5.663,1.67h62.571c3.151,0,5.758-1.193,7.822-3.584l73-83.43
	c1.356-1.521,2.185-3.299,2.483-5.336C186.391,30.756,186.132,28.815,185.318,26.968z M102.786,114.714H40.214l27.375-31.285h62.572
	L102.786,114.714z"/>
</svg>
