<?xml version="1.0" encoding="utf-8"?>
<!-- Generator: Adobe Illustrator 16.0.4, SVG Export Plug-In . SVG Version: 6.00 Build 0)  -->
<!DOCTYPE svg PUBLIC "-//W3C//DTD SVG 1.1//EN" "http://www.w3.org/Graphics/SVG/1.1/DTD/svg11.dtd">
<svg version="1.1" id="Capa_1" xmlns="http://www.w3.org/2000/svg" xmlns:xlink="http://www.w3.org/1999/xlink" x="0px" y="0px"
     width="216px" height="146px" viewBox="0 0 216 146" enable-background="new 0 0 216 146" xml:space="preserve">
<g>
	<path d="M96.839,74.873c-0.543-0.543-1.168-0.814-1.874-0.814s-1.331,0.271-1.874,0.814l-27.049,27.049L54.31,90.189
		c-1.032-1.03-2.253-1.547-3.666-1.547s-2.635,0.517-3.667,1.547c-1.032,1.033-1.548,2.256-1.548,3.668v36.5
		c0,1.412,0.516,2.634,1.548,3.666c1.033,1.031,2.255,1.548,3.667,1.548h36.5c1.412,0,2.634-0.517,3.666-1.548
		c1.032-1.032,1.548-2.254,1.548-3.666s-0.516-2.635-1.548-3.668l-11.732-11.73l27.049-27.05c0.543-0.543,0.814-1.167,0.814-1.874
		c0-0.706-0.272-1.33-0.814-1.874L96.839,74.873z"/>
	<path d="M169.023,11.978c-1.031-1.032-2.254-1.548-3.666-1.548h-36.5c-1.412,0-2.633,0.516-3.666,1.548
		c-1.031,1.032-1.547,2.254-1.547,3.666c0,1.412,0.516,2.635,1.547,3.666l11.731,11.732l-27.049,27.049
		c-0.543,0.544-0.815,1.168-0.815,1.874s0.272,1.331,0.815,1.874l9.288,9.288c0.543,0.543,1.167,0.814,1.874,0.814
		c0.706,0,1.33-0.271,1.873-0.814l27.05-27.049l11.73,11.731c1.033,1.032,2.256,1.549,3.668,1.549s2.634-0.517,3.666-1.549
		c1.031-1.031,1.547-2.254,1.547-3.666v-36.5C170.57,14.23,170.057,13.01,169.023,11.978z"/>
</g>
</svg>
