<?xml version="1.0" encoding="utf-8"?>
<!-- Generator: Adobe Illustrator 16.0.4, SVG Export Plug-In . SVG Version: 6.00 Build 0)  -->
<!DOCTYPE svg PUBLIC "-//W3C//DTD SVG 1.1//EN" "http://www.w3.org/Graphics/SVG/1.1/DTD/svg11.dtd">
<svg version="1.1" id="Capa_1" xmlns="http://www.w3.org/2000/svg" xmlns:xlink="http://www.w3.org/1999/xlink" x="0px" y="0px"
     width="216px" height="146px" viewBox="0 0 216 146" enable-background="new 0 0 216 146" xml:space="preserve">
<path d="M177.822,23.871c-0.706-0.271-1.385-0.407-2.037-0.407c-1.467,0-2.688,0.517-3.666,1.548l-32.834,32.753V44.322
	c0-6.464-2.295-11.99-6.885-16.58c-4.59-4.589-10.115-6.884-16.58-6.884H58.464c-6.463,0-11.99,2.295-16.58,6.884
	C37.295,32.332,35,37.858,35,44.322v57.357c0,6.464,2.295,11.99,6.884,16.579c4.59,4.59,10.117,6.885,16.58,6.885h57.356
	c6.465,0,11.99-2.295,16.58-6.885c4.59-4.589,6.885-10.115,6.885-16.579V88.154l32.834,32.834c0.979,1.031,2.199,1.548,3.666,1.548
	c0.652,0,1.331-0.136,2.037-0.407c2.119-0.923,3.178-2.525,3.178-4.807V28.679C181,26.397,179.941,24.795,177.822,23.871z"/>
</svg>
