<?xml version="1.0" encoding="utf-8"?>
<!-- Generator: Adobe Illustrator 16.0.4, SVG Export Plug-In . SVG Version: 6.00 Build 0)  -->
<!DOCTYPE svg PUBLIC "-//W3C//DTD SVG 1.1//EN" "http://www.w3.org/Graphics/SVG/1.1/DTD/svg11.dtd">
<svg version="1.1" id="Capa_1" xmlns="http://www.w3.org/2000/svg" xmlns:xlink="http://www.w3.org/1999/xlink" x="0px" y="0px"
     width="216px" height="146px" viewBox="0 0 216 146" enable-background="new 0 0 216 146" xml:space="preserve">
<g>
	<path d="M108,37.804c5.052,0,9.355-1.778,12.914-5.336c3.559-3.558,5.336-7.863,5.336-12.914c0-5.052-1.777-9.355-5.336-12.914
		c-3.559-3.557-7.863-5.336-12.914-5.336c-5.052,0-9.357,1.778-12.914,5.336s-5.336,7.862-5.336,12.914
		c0,5.052,1.778,9.357,5.336,12.914C98.644,36.025,102.948,37.804,108,37.804z"/>
	<path d="M158.839,80.414l-20.856-31.286c-3.965-5.812-8.744-8.718-14.34-8.718H92.357c-5.594,0-10.374,2.906-14.339,8.718
		L57.161,80.414c-0.869,1.303-1.304,2.743-1.304,4.318c0,2.172,0.76,4.02,2.281,5.539c1.521,1.521,3.368,2.281,5.54,2.281
		c2.77,0,4.943-1.168,6.518-3.503L88.69,61.267h3.667v10.754l-20.124,33.485c-0.489,0.814-0.733,1.71-0.733,2.688
		c0,1.413,0.516,2.634,1.548,3.667c1.032,1.031,2.254,1.547,3.666,1.547h15.642v22.161c0,2.499,0.895,4.645,2.688,6.437
		s3.938,2.688,6.437,2.688h13.035c2.5,0,4.646-0.896,6.438-2.688c1.792-1.793,2.688-3.938,2.688-6.437v-22.161h15.644
		c1.412,0,2.634-0.516,3.666-1.547c1.032-1.033,1.548-2.254,1.548-3.667c0-0.978-0.244-1.874-0.732-2.688l-20.125-33.485V61.267
		h3.668l18.494,27.783c1.575,2.335,3.747,3.503,6.519,3.503c2.172,0,4.018-0.76,5.538-2.281c1.521-1.52,2.281-3.367,2.281-5.539
		C160.143,83.157,159.709,81.718,158.839,80.414z"/>
</g>
</svg>
