<?xml version="1.0" encoding="utf-8"?>
<!-- Generator: Adobe Illustrator 16.0.4, SVG Export Plug-In . SVG Version: 6.00 Build 0)  -->
<!DOCTYPE svg PUBLIC "-//W3C//DTD SVG 1.1//EN" "http://www.w3.org/Graphics/SVG/1.1/DTD/svg11.dtd">
<svg version="1.1" id="Capa_1" xmlns="http://www.w3.org/2000/svg" xmlns:xlink="http://www.w3.org/1999/xlink" x="0px" y="0px"
     width="216px" height="146px" viewBox="0 0 216 146" enable-background="new 0 0 216 146" xml:space="preserve">
<path d="M162.178,43.122c-5.595-9.587-13.185-17.177-22.771-22.772c-9.588-5.595-20.055-8.392-31.408-8.392
	c-11.352,0-21.822,2.798-31.408,8.392c-9.587,5.595-17.177,13.185-22.772,22.772c-5.595,9.587-8.392,20.056-8.392,31.407
	c0,13.634,3.978,25.895,11.936,36.785c7.957,10.89,18.236,18.426,30.837,22.608c1.467,0.272,2.553,0.081,3.259-0.569
	c0.706-0.652,1.059-1.467,1.059-2.444c0-0.163-0.014-1.629-0.041-4.399c-0.028-2.771-0.041-5.188-0.041-7.25l-1.874,0.324
	c-1.195,0.219-2.702,0.312-4.522,0.285c-1.819-0.025-3.707-0.216-5.662-0.57c-1.956-0.352-3.775-1.166-5.459-2.442
	c-1.683-1.277-2.878-2.948-3.584-5.011l-0.815-1.875c-0.543-1.248-1.398-2.634-2.566-4.154c-1.168-1.521-2.349-2.553-3.544-3.096
	l-0.57-0.407c-0.38-0.272-0.733-0.599-1.059-0.979c-0.326-0.38-0.57-0.76-0.733-1.141c-0.163-0.38-0.028-0.693,0.407-0.938
	s1.222-0.365,2.363-0.365l1.629,0.244c1.086,0.217,2.43,0.868,4.033,1.955c1.602,1.086,2.919,2.498,3.951,4.235
	c1.25,2.228,2.756,3.925,4.522,5.093c1.765,1.168,3.544,1.751,5.336,1.751s3.34-0.136,4.644-0.407
	c1.303-0.271,2.525-0.679,3.666-1.222c0.489-3.64,1.82-6.437,3.992-8.392c-3.096-0.326-5.879-0.816-8.351-1.467
	c-2.471-0.652-5.024-1.711-7.658-3.179c-2.635-1.466-4.821-3.286-6.559-5.458c-1.738-2.173-3.164-5.025-4.277-8.555
	c-1.113-3.531-1.67-7.604-1.67-12.221c0-6.573,2.146-12.167,6.437-16.784c-2.01-4.942-1.82-10.482,0.57-16.62
	c1.575-0.489,3.911-0.122,7.007,1.1c3.096,1.222,5.363,2.269,6.803,3.137s2.594,1.603,3.463,2.2
	c5.052-1.412,10.266-2.118,15.643-2.118s10.592,0.706,15.645,2.118l3.096-1.955c2.117-1.304,4.617-2.499,7.494-3.585
	c2.879-1.086,5.08-1.385,6.601-0.896c2.444,6.138,2.661,11.678,0.651,16.62c4.291,4.617,6.437,10.212,6.437,16.784
	c0,4.617-0.558,8.703-1.67,12.261c-1.114,3.559-2.552,6.409-4.317,8.555c-1.766,2.146-3.966,3.952-6.6,5.418
	c-2.635,1.467-5.188,2.526-7.659,3.178c-2.472,0.652-5.255,1.142-8.351,1.468c2.824,2.444,4.236,6.3,4.236,11.569v17.189
	c0,0.977,0.34,1.792,1.019,2.443s1.751,0.842,3.218,0.57c12.602-4.182,22.881-11.718,30.838-22.609
	c7.957-10.889,11.936-23.15,11.936-36.785C170.57,63.177,167.771,52.709,162.178,43.122z"/>
</svg>
