<?xml version="1.0" encoding="utf-8"?>
<!-- Generator: Adobe Illustrator 16.0.3, SVG Export Plug-In . SVG Version: 6.00 Build 0)  -->
<!DOCTYPE svg PUBLIC "-//W3C//DTD SVG 1.1//EN" "http://www.w3.org/Graphics/SVG/1.1/DTD/svg11.dtd">
<svg version="1.1" id="Calque_1" xmlns="http://www.w3.org/2000/svg" xmlns:xlink="http://www.w3.org/1999/xlink" x="0px" y="0px"
	 width="40px" height="40px" viewBox="0 0 40 40" enable-background="new 0 0 40 40" xml:space="preserve">
<path fill-rule="evenodd" clip-rule="evenodd" fill="#70BE95" d="M33.723,20.913l-10.938,10.92c-0.395,0.393-1.032,0.393-1.426,0
	c-0.394-0.394-0.394-1.03,0-1.424L31.66,20.125L21.359,9.841c-0.394-0.394-0.394-1.031,0-1.424c0.394-0.394,1.031-0.394,1.426,0
	l10.938,10.921c0.217,0.216,0.303,0.504,0.281,0.787C34.025,20.408,33.939,20.696,33.723,20.913z"/>
<path fill-rule="evenodd" clip-rule="evenodd" fill="#70BE95" d="M21.777,20.644l-7.205,7.194c-0.26,0.259-0.68,0.259-0.939,0
	c-0.259-0.26-0.259-0.679,0-0.938l6.786-6.775l-6.786-6.774c-0.259-0.26-0.259-0.68,0-0.938s0.68-0.259,0.939,0l7.205,7.194
	c0.144,0.142,0.199,0.332,0.186,0.519C21.977,20.312,21.921,20.502,21.777,20.644z"/>
<path fill-rule="evenodd" clip-rule="evenodd" fill="#70BE95" d="M12.223,20.524l-5.537,5.528c-0.199,0.197-0.522,0.197-0.722,0
	c-0.2-0.199-0.2-0.522,0-0.722l5.214-5.205l-5.214-5.207c-0.2-0.198-0.2-0.521,0-0.72C6.163,14,6.486,14,6.686,14.199l5.537,5.528
	c0.109,0.108,0.153,0.254,0.142,0.398C12.375,20.268,12.332,20.415,12.223,20.524z"/>
</svg>
