<?xml version="1.0" encoding="utf-8"?>
<!-- Generator: Adobe Illustrator 16.0.3, SVG Export Plug-In . SVG Version: 6.00 Build 0)  -->
<!DOCTYPE svg PUBLIC "-//W3C//DTD SVG 1.1//EN" "http://www.w3.org/Graphics/SVG/1.1/DTD/svg11.dtd">
<svg version="1.1" id="Calque_1" xmlns="http://www.w3.org/2000/svg" xmlns:xlink="http://www.w3.org/1999/xlink" x="0px" y="0px"
	 width="52.17px" height="40px" viewBox="0 0 52.17 40" enable-background="new 0 0 52.17 40" xml:space="preserve">
<path opacity="0.8" fill="#70BE95" enable-background="new    " d="M18.318,19.961l10.938-10.92c0.396-0.394,1.032-0.394,1.427,0
	s0.395,1.03,0,1.424L20.381,20.749l10.302,10.284c0.395,0.394,0.395,1.029,0,1.424s-1.031,0.395-1.427,0L18.318,21.536
	c-0.217-0.216-0.303-0.504-0.281-0.787C18.016,20.466,18.102,20.179,18.318,19.961z"/>
<path opacity="0.5" fill="#70BE95" enable-background="new    " d="M30.265,20.229l7.204-7.193c0.261-0.26,0.681-0.26,0.939,0
	c0.259,0.26,0.259,0.679,0,0.938l-6.786,6.775l6.786,6.772c0.259,0.262,0.259,0.682,0,0.938c-0.261,0.259-0.681,0.259-0.939,0
	l-7.204-7.192c-0.145-0.144-0.199-0.332-0.187-0.521C30.064,20.563,30.12,20.372,30.265,20.229z"/>
<path opacity="0.25" fill="#70BE95" enable-background="new    " d="M39.817,20.351l5.537-5.528c0.199-0.197,0.521-0.197,0.723,0
	c0.199,0.198,0.199,0.522,0,0.722l-5.215,5.205l5.215,5.207c0.199,0.197,0.199,0.521,0,0.72s-0.521,0.198-0.723-0.001l-5.537-5.527
	c-0.108-0.107-0.152-0.254-0.143-0.397C39.666,20.605,39.709,20.459,39.817,20.351z"/>
</svg>
