<?xml version="1.0" encoding="utf-8"?>
<!-- Generator: Adobe Illustrator 16.0.3, SVG Export Plug-In . SVG Version: 6.00 Build 0)  -->
<!DOCTYPE svg PUBLIC "-//W3C//DTD SVG 1.1//EN" "http://www.w3.org/Graphics/SVG/1.1/DTD/svg11.dtd">
<svg version="1.1" id="Calque_1" xmlns="http://www.w3.org/2000/svg" xmlns:xlink="http://www.w3.org/1999/xlink" x="0px" y="0px"
	 width="40px" height="40px" viewBox="0 0 40 40" enable-background="new 0 0 40 40" xml:space="preserve">
<path fill="#70BF96" d="M18.044,19.605l7.204-7.194c0.26-0.259,0.682-0.259,0.939,0c0.26,0.26,0.26,0.679,0,0.938l-6.786,6.775
	l6.786,6.774c0.26,0.26,0.26,0.68,0,0.938c-0.26,0.26-0.681,0.26-0.939,0l-7.204-7.193c-0.144-0.143-0.199-0.333-0.186-0.52
	C17.845,19.938,17.9,19.747,18.044,19.605z"/>
<path fill="#70BF96" d="M27.6,19.725l5.537-5.528c0.198-0.197,0.521-0.197,0.721,0c0.199,0.199,0.199,0.522,0,0.722l-5.215,5.205
	l5.215,5.207c0.199,0.198,0.199,0.521,0,0.72c-0.198,0.199-0.521,0.199-0.721,0L27.6,20.523c-0.109-0.108-0.154-0.254-0.143-0.398
	C27.445,19.981,27.488,19.834,27.6,19.725z"/>
</svg>
