<?xml version="1.0" encoding="utf-8"?>
<!-- Generator: Adobe Illustrator 16.0.3, SVG Export Plug-In . SVG Version: 6.00 Build 0)  -->
<!DOCTYPE svg PUBLIC "-//W3C//DTD SVG 1.1//EN" "http://www.w3.org/Graphics/SVG/1.1/DTD/svg11.dtd">
<svg version="1.1" id="Calque_1" xmlns="http://www.w3.org/2000/svg" xmlns:xlink="http://www.w3.org/1999/xlink" x="0px" y="0px"
	 width="40px" height="40px" viewBox="0 0 40 40" enable-background="new 0 0 40 40" xml:space="preserve">
<path fill-rule="evenodd" clip-rule="evenodd" fill="#70BE95" d="M6.099,19.336l10.938-10.92c0.395-0.393,1.032-0.393,1.426,0
	c0.394,0.394,0.394,1.03,0,1.424L8.161,20.124l10.301,10.284c0.394,0.394,0.394,1.031,0,1.424c-0.394,0.394-1.031,0.394-1.426,0
	L6.099,20.911c-0.217-0.216-0.303-0.504-0.281-0.787C5.796,19.841,5.882,19.553,6.099,19.336z"/>
<path opacity="0.5" fill-rule="evenodd" clip-rule="evenodd" fill="#70BE95" d="M18.044,19.605l7.204-7.194
	c0.26-0.259,0.681-0.259,0.939,0c0.26,0.26,0.26,0.679,0,0.938l-6.785,6.775l6.785,6.774c0.26,0.26,0.26,0.68,0,0.938
	c-0.259,0.259-0.68,0.259-0.939,0l-7.204-7.194c-0.144-0.142-0.199-0.332-0.186-0.519C17.845,19.938,17.9,19.747,18.044,19.605z"/>
<path opacity="0.25" fill-rule="evenodd" clip-rule="evenodd" fill="#70BE95" d="M27.599,19.725l5.537-5.528
	c0.199-0.197,0.522-0.197,0.722,0c0.199,0.199,0.199,0.522,0,0.722l-5.215,5.205l5.215,5.207c0.199,0.198,0.199,0.521,0,0.72
	c-0.199,0.199-0.522,0.199-0.722,0l-5.537-5.528c-0.109-0.108-0.153-0.254-0.142-0.398C27.445,19.981,27.489,19.834,27.599,19.725z"
	/>
<path fill="#70BE95" d="M4.876,11.5c0,5.723,0,11.445,0,17.167c0,0.806,1.25,0.806,1.25,0c0-5.723,0-11.445,0-17.167
	C6.126,10.693,4.876,10.693,4.876,11.5L4.876,11.5z"/>
</svg>
