<?xml version="1.0" encoding="utf-8"?>
<!-- Generator: Adobe Illustrator 16.0.3, SVG Export Plug-In . SVG Version: 6.00 Build 0)  -->
<!DOCTYPE svg PUBLIC "-//W3C//DTD SVG 1.1//EN" "http://www.w3.org/Graphics/SVG/1.1/DTD/svg11.dtd">
<svg version="1.1" id="Calque_1" xmlns="http://www.w3.org/2000/svg" xmlns:xlink="http://www.w3.org/1999/xlink" x="0px" y="0px"
	 width="52.17px" height="40px" viewBox="0 0 52.17 40" enable-background="new 0 0 52.17 40" xml:space="preserve">
<path opacity="0.5" fill="#70BE95" enable-background="new    " d="M21.777,20.645l-7.206,7.193c-0.26,0.26-0.68,0.26-0.939,0
	c-0.259-0.26-0.259-0.679,0-0.938l6.786-6.775l-6.786-6.774c-0.259-0.26-0.259-0.68,0-0.938c0.259-0.258,0.68-0.259,0.939,0
	l7.206,7.194c0.144,0.142,0.199,0.332,0.186,0.519C21.977,20.312,21.921,20.502,21.777,20.645z"/>
<path opacity="0.25" fill="#70BE95" enable-background="new    " d="M12.223,20.523l-5.537,5.527c-0.199,0.197-0.522,0.197-0.722,0
	c-0.2-0.197-0.2-0.521,0-0.722l5.214-5.205l-5.214-5.207c-0.2-0.198-0.2-0.521,0-0.72C6.163,14,6.486,14,6.686,14.199l5.537,5.528
	c0.109,0.108,0.153,0.254,0.142,0.398C12.375,20.268,12.332,20.415,12.223,20.523z"/>
</svg>
