<?xml version="1.0" encoding="utf-8"?>
<!-- Generator: Adobe Illustrator 16.0.3, SVG Export Plug-In . SVG Version: 6.00 Build 0)  -->
<!DOCTYPE svg PUBLIC "-//W3C//DTD SVG 1.1//EN" "http://www.w3.org/Graphics/SVG/1.1/DTD/svg11.dtd">
<svg version="1.1" id="Calque_1" xmlns="http://www.w3.org/2000/svg" xmlns:xlink="http://www.w3.org/1999/xlink" x="0px" y="0px"
	 width="52.17px" height="40px" viewBox="0 0 52.17 40" enable-background="new 0 0 52.17 40" xml:space="preserve">
<path opacity="0.8" fill="#70BE95" enable-background="new    " d="M19.318,19.961l10.938-10.92c0.396-0.394,1.032-0.394,1.427,0
	s0.395,1.03,0,1.424L21.381,20.749l10.302,10.284c0.395,0.394,0.395,1.029,0,1.424s-1.031,0.395-1.427,0L19.318,21.536
	c-0.217-0.216-0.303-0.504-0.281-0.787C19.016,20.466,19.102,20.179,19.318,19.961z"/>
<path opacity="0.5" fill="#70BE95" enable-background="new    " d="M31.265,20.229l7.204-7.193c0.261-0.26,0.681-0.26,0.939,0
	c0.259,0.26,0.259,0.679,0,0.938l-6.786,6.775l6.786,6.772c0.259,0.262,0.259,0.682,0,0.938c-0.261,0.259-0.681,0.259-0.939,0
	l-7.204-7.192c-0.145-0.144-0.199-0.332-0.187-0.521C31.064,20.563,31.12,20.372,31.265,20.229z"/>
<path opacity="0.25" fill="#70BE95" enable-background="new    " d="M40.817,20.351l5.537-5.528c0.199-0.197,0.521-0.197,0.723,0
	c0.199,0.198,0.199,0.522,0,0.722l-5.215,5.205l5.215,5.207c0.199,0.197,0.199,0.521,0,0.72s-0.521,0.198-0.723-0.001l-5.537-5.527
	c-0.108-0.107-0.152-0.254-0.143-0.397C40.666,20.605,40.709,20.459,40.817,20.351z"/>
<path fill="#70BE95" d="M7.165,29.374c0-5.724,0-11.445,0-17.167c0-0.806-1.25-0.806-1.25,0c0,5.724,0,11.445,0,17.167
	C5.915,30.182,7.165,30.182,7.165,29.374L7.165,29.374z"/>
<path fill="#70BE95" d="M7.308,19.9l13.52-13.498c0.488-0.486,1.275-0.486,1.764,0c0.486,0.486,0.486,1.273,0,1.76L9.858,20.873
	L22.59,33.586c0.486,0.486,0.486,1.271,0,1.76c-0.488,0.485-1.275,0.485-1.764,0L7.308,21.848c-0.268-0.27-0.373-0.623-0.348-0.975
	C6.935,20.523,7.04,20.17,7.308,19.9z"/>
</svg>
