<?xml version="1.0" encoding="utf-8"?>
<!-- Generator: Adobe Illustrator 16.0.3, SVG Export Plug-In . SVG Version: 6.00 Build 0)  -->
<!DOCTYPE svg PUBLIC "-//W3C//DTD SVG 1.1//EN" "http://www.w3.org/Graphics/SVG/1.1/DTD/svg11.dtd">
<svg version="1.1" id="Calque_1" xmlns="http://www.w3.org/2000/svg" xmlns:xlink="http://www.w3.org/1999/xlink" x="0px" y="0px"
	 width="52.17px" height="40px" viewBox="0 0 52.17 40" enable-background="new 0 0 52.17 40" xml:space="preserve">
<path opacity="0.5" fill="#70BE95" enable-background="new    " d="M31.265,21.229l7.204-7.192c0.261-0.26,0.681-0.26,0.939,0
	c0.259,0.26,0.259,0.679,0,0.938l-6.786,6.775l6.786,6.772c0.259,0.262,0.259,0.682,0,0.938c-0.261,0.259-0.681,0.259-0.939,0
	l-7.204-7.192c-0.145-0.144-0.199-0.332-0.187-0.521C31.064,21.563,31.12,21.372,31.265,21.229z"/>
<path opacity="0.25" fill="#70BE95" enable-background="new    " d="M40.817,21.352l5.537-5.528c0.199-0.197,0.521-0.197,0.723,0
	c0.199,0.198,0.199,0.522,0,0.722l-5.215,5.205l5.215,5.207c0.199,0.197,0.199,0.521,0,0.72s-0.521,0.198-0.723-0.001l-5.537-5.527
	c-0.108-0.107-0.152-0.254-0.143-0.397C40.666,21.605,40.709,21.459,40.817,21.352z"/>
</svg>
