<?xml version="1.0" encoding="utf-8"?>
<!-- Generator: Adobe Illustrator 16.0.4, SVG Export Plug-In . SVG Version: 6.00 Build 0)  -->
<!DOCTYPE svg PUBLIC "-//W3C//DTD SVG 1.1//EN" "http://www.w3.org/Graphics/SVG/1.1/DTD/svg11.dtd">
<svg version="1.1" id="Capa_1" xmlns="http://www.w3.org/2000/svg" xmlns:xlink="http://www.w3.org/1999/xlink" x="0px" y="0px"
     width="216px" height="146px" viewBox="0 0 216 146" enable-background="new 0 0 216 146" xml:space="preserve">
<path d="M175.496,116.956l-29.574-29.575c-2.117-2.01-4.59-3.015-7.414-3.015c-2.879,0-5.486,1.168-7.82,3.504l-20.856-20.857
	l10.267-10.266c0.76-0.761,1.141-1.684,1.141-2.771c0-1.086-0.381-2.009-1.141-2.77c0.107,0.109,0.434,0.448,0.977,1.019
	s0.896,0.91,1.061,1.019c0.163,0.108,0.475,0.379,0.936,0.814c0.464,0.434,0.828,0.706,1.101,0.814s0.64,0.271,1.103,0.489
	c0.461,0.217,0.908,0.366,1.344,0.448c0.434,0.081,0.924,0.122,1.467,0.122c2.062,0,3.91-0.76,5.539-2.281
	c0.164-0.163,0.652-0.611,1.467-1.345c0.815-0.734,1.371-1.249,1.67-1.548c0.299-0.299,0.748-0.801,1.346-1.507
	c0.597-0.706,1.019-1.304,1.263-1.793c0.243-0.488,0.487-1.086,0.733-1.792c0.244-0.706,0.365-1.412,0.365-2.118
	c0-2.173-0.76-4.02-2.281-5.541l-33.241-33.24c-1.521-1.521-3.368-2.281-5.54-2.281c-0.706,0-1.412,0.122-2.119,0.366
	c-0.706,0.244-1.303,0.489-1.792,0.733c-0.489,0.244-1.086,0.665-1.792,1.263s-1.208,1.046-1.507,1.345
	c-0.299,0.299-0.815,0.856-1.548,1.67c-0.734,0.815-1.182,1.304-1.345,1.467c-1.52,1.629-2.281,3.476-2.281,5.54
	c0,0.543,0.041,1.032,0.123,1.466c0.082,0.435,0.231,0.883,0.448,1.345c0.217,0.462,0.38,0.829,0.489,1.1
	c0.108,0.271,0.379,0.639,0.814,1.101c0.435,0.461,0.706,0.774,0.815,0.937c0.108,0.164,0.448,0.516,1.018,1.06
	c0.571,0.543,0.911,0.87,1.019,0.978c-0.76-0.761-1.684-1.141-2.77-1.141s-2.01,0.38-2.77,1.141L57.854,51.209
	c-0.761,0.761-1.141,1.684-1.141,2.77c0,1.087,0.38,2.01,1.141,2.771c-0.109-0.109-0.435-0.449-0.978-1.019
	c-0.543-0.571-0.896-0.91-1.059-1.019c-0.163-0.108-0.475-0.379-0.937-0.814c-0.462-0.434-0.829-0.706-1.1-0.814
	c-0.271-0.108-0.638-0.271-1.1-0.489c-0.461-0.217-0.909-0.366-1.344-0.448c-0.434-0.081-0.923-0.122-1.466-0.122
	c-2.064,0-3.912,0.76-5.541,2.281c-0.162,0.163-0.652,0.612-1.466,1.345c-0.815,0.734-1.371,1.249-1.67,1.548
	c-0.299,0.299-0.746,0.801-1.344,1.507c-0.597,0.706-1.019,1.304-1.263,1.793c-0.244,0.488-0.488,1.086-0.733,1.792
	c-0.244,0.706-0.367,1.412-0.367,2.118c0,2.173,0.76,4.019,2.281,5.54l33.241,33.24c1.521,1.521,3.368,2.281,5.54,2.281
	c0.706,0,1.412-0.121,2.119-0.365c0.706-0.244,1.303-0.489,1.792-0.733c0.489-0.244,1.086-0.665,1.792-1.263
	s1.208-1.046,1.507-1.346c0.299-0.299,0.815-0.855,1.548-1.67c0.734-0.814,1.182-1.304,1.345-1.467
	c1.52-1.629,2.281-3.477,2.281-5.54c0-0.543-0.041-1.032-0.123-1.467s-0.231-0.882-0.448-1.345c-0.217-0.461-0.38-0.828-0.489-1.1
	c-0.108-0.271-0.379-0.639-0.814-1.101c-0.435-0.461-0.706-0.774-0.815-0.937c-0.108-0.164-0.448-0.517-1.018-1.061
	c-0.571-0.543-0.911-0.87-1.019-0.979c0.76,0.762,1.684,1.142,2.77,1.142s2.01-0.38,2.77-1.142l10.266-10.266l20.857,20.857
	c-2.336,2.336-3.504,4.941-3.504,7.82c0,2.934,1.033,5.377,3.096,7.334l29.576,29.655c2.01,2.009,4.453,3.015,7.332,3.015
	c2.824,0,5.295-1.006,7.414-3.015l8.717-8.8c2.01-2.01,3.016-4.453,3.016-7.332C178.516,121.545,177.51,119.073,175.496,116.956z"/>
</svg>
