<?xml version="1.0" encoding="utf-8"?>
<!-- Generator: Adobe Illustrator 16.0.4, SVG Export Plug-In . SVG Version: 6.00 Build 0)  -->
<!DOCTYPE svg PUBLIC "-//W3C//DTD SVG 1.1//EN" "http://www.w3.org/Graphics/SVG/1.1/DTD/svg11.dtd">
<svg version="1.1" id="Capa_1" xmlns="http://www.w3.org/2000/svg" xmlns:xlink="http://www.w3.org/1999/xlink" x="0px" y="0px"
     width="216px" height="146px" viewBox="0 0 216 146" enable-background="new 0 0 216 146" xml:space="preserve">
<path d="M165.072,26.357c-7.143-7.143-15.738-10.714-25.787-10.714c-10.047,0-18.643,3.571-25.785,10.714
	c-7.143,7.142-10.714,15.738-10.714,25.786v15.644h-54.75c-2.172,0-4.019,0.76-5.54,2.281c-1.521,1.52-2.281,3.367-2.281,5.54v46.93
	c0,2.172,0.76,4.02,2.281,5.54s3.368,2.28,5.54,2.28h78.214c2.174,0,4.02-0.76,5.541-2.28c1.52-1.521,2.281-3.368,2.281-5.54v-46.93
	c0-2.172-0.762-4.019-2.281-5.54c-1.521-1.521-3.367-2.281-5.541-2.281h-7.82V52.143c0-5.757,2.035-10.673,6.109-14.746
	c4.074-4.074,8.99-6.11,14.746-6.11c5.758,0,10.674,2.036,14.748,6.11c4.072,4.073,6.109,8.989,6.109,14.746V73
	c0,1.412,0.516,2.635,1.549,3.666c1.031,1.032,2.254,1.548,3.666,1.548h5.215c1.412,0,2.633-0.516,3.666-1.548
	c1.031-1.031,1.547-2.254,1.547-3.666V52.143C175.785,42.095,172.214,33.5,165.072,26.357z"/>
</svg>
