<?xml version="1.0" encoding="utf-8"?>
<!-- Generator: Adobe Illustrator 16.0.4, SVG Export Plug-In . SVG Version: 6.00 Build 0)  -->
<!DOCTYPE svg PUBLIC "-//W3C//DTD SVG 1.1//EN" "http://www.w3.org/Graphics/SVG/1.1/DTD/svg11.dtd">
<svg version="1.1" id="Capa_1" xmlns="http://www.w3.org/2000/svg" xmlns:xlink="http://www.w3.org/1999/xlink" x="0px" y="0px"
     width="216px" height="146px" viewBox="0 0 216 146" enable-background="new 0 0 216 146" xml:space="preserve">
<g>
	<path d="M108,37.804c5.051,0,9.355-1.778,12.914-5.336c3.557-3.558,5.336-7.863,5.336-12.914c0-5.052-1.779-9.355-5.336-12.914
		c-3.559-3.557-7.863-5.336-12.914-5.336c-5.052,0-9.357,1.778-12.914,5.336s-5.336,7.862-5.336,12.914
		c0,5.052,1.778,9.357,5.336,12.914C98.644,36.025,102.949,37.804,108,37.804z"/>
	<path d="M145.152,44.973c-3.043-3.041-6.735-4.562-11.08-4.562H81.929c-4.346,0-8.039,1.52-11.081,4.562
		c-3.041,3.042-4.562,6.736-4.562,11.081v33.894c0,2.173,0.76,4.019,2.281,5.539c1.521,1.521,3.368,2.281,5.54,2.281
		c2.173,0,4.02-0.76,5.541-2.281c1.52-1.52,2.281-3.366,2.281-5.539V61.269h5.214v74.303c0,2.498,0.897,4.645,2.689,6.437
		s3.937,2.688,6.436,2.688s4.645-0.896,6.437-2.688s2.688-3.938,2.688-6.437V97.768h5.214v37.805c0,2.498,0.896,4.645,2.688,6.437
		s3.938,2.688,6.437,2.688s4.645-0.896,6.437-2.688c1.793-1.793,2.688-3.938,2.688-6.437V61.269h5.215v28.678
		c0,2.173,0.76,4.019,2.281,5.539c1.52,1.521,3.367,2.281,5.539,2.281s4.021-0.76,5.541-2.281c1.52-1.52,2.281-3.366,2.281-5.539
		V56.054C149.715,51.708,148.193,48.015,145.152,44.973z"/>
</g>
</svg>
