<?xml version="1.0" encoding="utf-8"?>
<!-- Generator: Adobe Illustrator 16.0.4, SVG Export Plug-In . SVG Version: 6.00 Build 0)  -->
<!DOCTYPE svg PUBLIC "-//W3C//DTD SVG 1.1//EN" "http://www.w3.org/Graphics/SVG/1.1/DTD/svg11.dtd">
<svg version="1.1" id="Capa_1" xmlns="http://www.w3.org/2000/svg" xmlns:xlink="http://www.w3.org/1999/xlink" x="0px" y="0px"
     width="216px" height="146px" viewBox="0 0 216 146" enable-background="new 0 0 216 146" xml:space="preserve">
<g>
	<path d="M72.722,82.206C71.907,78.947,71.5,75.879,71.5,73V62.57c0-1.412-0.516-2.634-1.548-3.666
		c-1.032-1.032-2.254-1.548-3.666-1.548c-1.413,0-2.635,0.516-3.667,1.548c-1.032,1.032-1.548,2.254-1.548,3.666v10.429
		c0,6.03,1.141,11.841,3.422,17.437L72.722,82.206z"/>
	<path d="M108,99.07c7.17,0,13.309-2.553,18.412-7.657c5.105-5.104,7.658-11.243,7.658-18.413V62.571l29.412-29.412
		c0.543-0.543,0.815-1.168,0.815-1.874s-0.271-1.331-0.815-1.874l-6.68-6.681c-0.544-0.544-1.168-0.815-1.875-0.815
		c-0.705,0-1.33,0.271-1.873,0.815L52.517,123.268c-0.543,0.543-0.814,1.168-0.814,1.873c0,0.707,0.271,1.332,0.814,1.875
		l6.681,6.681c0.543,0.543,1.168,0.814,1.874,0.814c0.706,0,1.331-0.271,1.874-0.814l20.694-20.694
		c5.974,3.695,12.356,5.895,19.146,6.6v10.756H81.929c-1.412,0-2.635,0.516-3.666,1.548c-1.032,1.032-1.549,2.254-1.549,3.666
		c0,1.411,0.517,2.635,1.549,3.666c1.031,1.032,2.254,1.549,3.666,1.549h52.141c1.412,0,2.635-0.517,3.666-1.549
		c1.033-1.031,1.549-2.255,1.549-3.666c0-1.412-0.516-2.634-1.549-3.666c-1.031-1.032-2.254-1.548-3.666-1.548h-20.856v-10.756
		c11.786-1.303,21.685-6.395,29.697-15.275c8.011-8.88,12.017-19.322,12.017-31.326V62.571c0-1.412-0.516-2.634-1.547-3.666
		c-1.033-1.032-2.255-1.548-3.667-1.548s-2.634,0.516-3.666,1.548c-1.032,1.032-1.548,2.254-1.548,3.666V73
		c0,10.049-3.572,18.643-10.714,25.785S118.048,109.499,108,109.499c-5.866,0-11.433-1.384-16.702-4.155l7.821-7.82
		C102.053,98.555,105.013,99.07,108,99.07z"/>
	<path d="M123.032,10.022C118.551,6.817,113.54,5.214,108,5.214c-7.17,0-13.308,2.554-18.413,7.659s-7.658,11.243-7.658,18.413V73
		l50.594-50.595C130.676,17.354,127.514,13.226,123.032,10.022z"/>
</g>
</svg>
