<?xml version="1.0" encoding="utf-8"?>
<!-- Generator: Adobe Illustrator 16.0.4, SVG Export Plug-In . SVG Version: 6.00 Build 0)  -->
<!DOCTYPE svg PUBLIC "-//W3C//DTD SVG 1.1//EN" "http://www.w3.org/Graphics/SVG/1.1/DTD/svg11.dtd">
<svg version="1.1" id="Capa_1" xmlns="http://www.w3.org/2000/svg" xmlns:xlink="http://www.w3.org/1999/xlink" x="0px" y="0px"
     width="216px" height="146px" viewBox="0 0 216 146" enable-background="new 0 0 216 146" xml:space="preserve">
<path d="M168.289,7.497c-1.52-1.521-3.367-2.281-5.54-2.281c-0.869,0-1.63,0.109-2.281,0.326L92.682,26.399
	c-1.629,0.543-2.96,1.507-3.992,2.892c-1.032,1.386-1.548,2.92-1.548,4.604v78.785c-4.726-2.119-9.94-3.178-15.643-3.178
	c-2.444,0-5.065,0.285-7.862,0.855c-2.798,0.569-5.609,1.438-8.433,2.606c-2.825,1.168-5.16,2.812-7.007,4.929
	c-1.847,2.118-2.77,4.536-2.77,7.252c0,2.717,0.923,5.133,2.77,7.252c1.847,2.116,4.182,3.76,7.007,4.928
	c2.825,1.168,5.636,2.037,8.433,2.606c2.797,0.57,5.418,0.854,7.862,0.854s5.064-0.284,7.862-0.854
	c2.798-0.569,5.608-1.438,8.433-2.606c2.824-1.168,5.159-2.812,7.006-4.928c1.848-2.119,2.771-4.535,2.771-7.252V67.38
	l62.572-19.309v43.751c-4.727-2.118-9.94-3.178-15.644-3.178c-2.444,0-5.065,0.284-7.862,0.854
	c-2.797,0.569-5.607,1.438-8.432,2.606c-2.825,1.168-5.16,2.812-7.008,4.931c-1.846,2.116-2.771,4.535-2.771,7.25
	c0,2.717,0.925,5.133,2.771,7.252c1.848,2.118,4.183,3.762,7.008,4.929c2.824,1.168,5.635,2.037,8.432,2.607
	s5.418,0.854,7.862,0.854s5.065-0.284,7.862-0.854s5.607-1.439,8.433-2.607c2.824-1.167,5.159-2.811,7.007-4.929
	c1.848-2.119,2.77-4.535,2.77-7.252v-91.25C170.57,10.863,169.812,9.017,168.289,7.497z"/>
</svg>
