<?xml version="1.0" encoding="utf-8"?>
<!-- Generator: Adobe Illustrator 16.0.4, SVG Export Plug-In . SVG Version: 6.00 Build 0)  -->
<!DOCTYPE svg PUBLIC "-//W3C//DTD SVG 1.1//EN" "http://www.w3.org/Graphics/SVG/1.1/DTD/svg11.dtd">
<svg version="1.1" id="Capa_1" xmlns="http://www.w3.org/2000/svg" xmlns:xlink="http://www.w3.org/1999/xlink" x="0px" y="0px"
     width="216px" height="146px" viewBox="0 0 216 146" enable-background="new 0 0 216 146" xml:space="preserve">
<g>
	<path d="M182.384,14.258c-2.553-2.553-5.62-3.829-9.206-3.829H42.821c-3.585,0-6.653,1.276-9.207,3.829
		c-2.553,2.553-3.829,5.621-3.829,9.206v99.071c0,3.585,1.276,6.654,3.829,9.207c2.554,2.553,5.622,3.829,9.207,3.829H173.18
		c3.584,0,6.652-1.276,9.205-3.829s3.83-5.622,3.83-9.207V23.464C186.215,19.879,184.938,16.811,182.384,14.258z M175.784,122.534
		c0,0.707-0.257,1.317-0.773,1.834c-0.516,0.515-1.127,0.772-1.833,0.772H42.821c-0.706,0-1.317-0.257-1.833-0.772
		c-0.516-0.517-0.774-1.127-0.774-1.834V23.463c0-0.706,0.257-1.316,0.774-1.833c0.516-0.515,1.127-0.773,1.833-0.773H173.18
		c0.705,0,1.316,0.258,1.831,0.773c0.515,0.517,0.773,1.127,0.773,1.833V122.534z"/>
	<path d="M66.286,62.571c4.346,0,8.039-1.52,11.081-4.562c3.041-3.042,4.562-6.735,4.562-11.08c0-4.346-1.522-8.039-4.562-11.081
		c-3.042-3.041-6.735-4.562-11.081-4.562c-4.345,0-8.038,1.521-11.08,4.562c-3.041,3.042-4.562,6.735-4.562,11.081
		c0,4.345,1.52,8.039,4.562,11.08S61.941,62.571,66.286,62.571z"/>
	<polygon points="89.75,86.035 76.714,73 50.643,99.071 50.643,114.714 165.357,114.714 165.357,78.214 131.465,44.321 	"/>
</g>
</svg>
