<?xml version="1.0" encoding="utf-8"?>
<!-- Generator: Adobe Illustrator 16.0.4, SVG Export Plug-In . SVG Version: 6.00 Build 0)  -->
<!DOCTYPE svg PUBLIC "-//W3C//DTD SVG 1.1//EN" "http://www.w3.org/Graphics/SVG/1.1/DTD/svg11.dtd">
<svg version="1.1" id="Capa_1" xmlns="http://www.w3.org/2000/svg" xmlns:xlink="http://www.w3.org/1999/xlink" x="0px" y="0px"
     width="216px" height="146px" viewBox="0 0 216 146" enable-background="new 0 0 216 146" xml:space="preserve">
<g>
	<path d="M108,78.215c2.824,0,5.27-1.031,7.332-3.096c2.064-2.063,3.098-4.508,3.098-7.332V15.643c0-2.825-1.033-5.269-3.098-7.332
		c-2.062-2.065-4.507-3.097-7.332-3.097s-5.269,1.033-7.333,3.097c-2.064,2.063-3.096,4.508-3.096,7.332v52.144
		c0,2.824,1.032,5.269,3.096,7.332C102.731,77.184,105.176,78.215,108,78.215z"/>
	<path d="M164.014,50.269c-4.373-8.744-10.523-16.077-18.453-21.997c-2.281-1.738-4.861-2.417-7.74-2.037
		c-2.879,0.38-5.16,1.738-6.844,4.073c-1.738,2.281-2.403,4.847-1.996,7.699c0.406,2.853,1.752,5.147,4.033,6.885
		c5.321,4.019,9.438,8.935,12.342,14.747c2.906,5.811,4.358,12.004,4.358,18.575c0,5.65-1.1,11.04-3.299,16.173
		c-2.2,5.133-5.174,9.573-8.922,13.321c-3.748,3.747-8.187,6.721-13.32,8.921c-5.133,2.2-10.524,3.301-16.173,3.301
		c-5.648,0-11.039-1.101-16.172-3.301c-5.133-2.2-9.573-5.174-13.321-8.921c-3.747-3.748-6.721-8.188-8.921-13.321
		s-3.3-10.523-3.3-16.173c0-6.571,1.453-12.763,4.359-18.575c2.906-5.811,7.02-10.727,12.343-14.747
		c2.281-1.739,3.625-4.033,4.033-6.885c0.407-2.851-0.258-5.418-1.996-7.699c-1.684-2.335-3.951-3.693-6.803-4.073
		c-2.852-0.38-5.446,0.299-7.781,2.037c-7.931,5.92-14.081,13.253-18.454,21.997c-4.373,8.745-6.559,18.06-6.559,27.945
		c0,8.474,1.657,16.566,4.97,24.279c3.314,7.713,7.767,14.366,13.362,19.961c5.594,5.594,12.248,10.049,19.961,13.36
		c7.713,3.314,15.806,4.972,24.279,4.972c8.473,0,16.566-1.658,24.279-4.972c7.713-3.312,14.367-7.766,19.961-13.36
		s10.047-12.248,13.361-19.961c3.313-7.713,4.969-15.806,4.969-24.279C170.57,68.329,168.387,59.014,164.014,50.269z"/>
</g>
</svg>
