<?xml version="1.0" encoding="utf-8"?>
<!-- Generator: Adobe Illustrator 16.0.4, SVG Export Plug-In . SVG Version: 6.00 Build 0)  -->
<!DOCTYPE svg PUBLIC "-//W3C//DTD SVG 1.1//EN" "http://www.w3.org/Graphics/SVG/1.1/DTD/svg11.dtd">
<svg version="1.1" id="Capa_1" xmlns="http://www.w3.org/2000/svg" xmlns:xlink="http://www.w3.org/1999/xlink" x="0px" y="0px"
     width="216px" height="146px" viewBox="0 0 216 146" enable-background="new 0 0 216 146" xml:space="preserve">
<g>
	<path d="M169.023,17.191c-1.031-1.031-2.254-1.548-3.666-1.548s-2.633,0.517-3.666,1.548L151.1,27.702
		c-5.812-5.486-12.466-9.737-19.961-12.751C123.645,11.937,115.93,10.43,108,10.43c-14.937,0-27.972,4.521-39.107,13.565
		c-11.135,9.043-18.467,20.842-21.998,35.399v0.57c0,0.706,0.258,1.317,0.774,1.833c0.516,0.516,1.127,0.774,1.833,0.774h16.213
		c1.195,0,2.009-0.625,2.444-1.874c2.281-5.431,3.72-8.608,4.318-9.532c3.802-6.192,8.853-11.053,15.154-14.584
		c6.301-3.53,13.09-5.296,20.368-5.296c10.918,0,20.396,3.721,28.435,11.162L125.189,53.69c-1.03,1.032-1.547,2.255-1.547,3.667
		c0,1.412,0.517,2.634,1.547,3.666c1.033,1.032,2.256,1.548,3.668,1.548h36.5c1.412,0,2.634-0.516,3.666-1.548
		c1.031-1.032,1.547-2.254,1.547-3.666v-36.5C170.57,19.445,170.057,18.223,169.023,17.191z"/>
	<path d="M165.926,83.429h-15.644c-1.194,0-2.009,0.624-2.443,1.874c-2.28,5.432-3.72,8.608-4.317,9.532
		c-3.803,6.19-8.854,11.053-15.154,14.583c-6.301,3.531-13.09,5.296-20.368,5.296c-5.268,0-10.347-0.977-15.235-2.933
		c-4.888-1.956-9.261-4.727-13.117-8.312l11.162-11.161c1.032-1.031,1.548-2.255,1.548-3.666c0-1.412-0.516-2.635-1.548-3.666
		c-1.032-1.033-2.254-1.549-3.666-1.549h-36.5c-1.413,0-2.635,0.516-3.667,1.549c-1.032,1.031-1.548,2.254-1.548,3.666v36.5
		c0,1.411,0.516,2.635,1.548,3.666c1.033,1.031,2.255,1.549,3.667,1.549s2.634-0.518,3.666-1.549l10.51-10.511
		c5.812,5.54,12.425,9.804,19.839,12.791c7.414,2.988,15.086,4.481,23.016,4.481c14.883,0,27.864-4.521,38.944-13.565
		c11.08-9.043,18.358-20.843,21.835-35.399c0.055-0.108,0.081-0.299,0.081-0.57c0-0.706-0.259-1.316-0.775-1.833
		C167.243,83.688,166.632,83.429,165.926,83.429z"/>
</g>
</svg>
