<?xml version="1.0" encoding="utf-8"?>
<!-- Generator: Adobe Illustrator 16.0.4, SVG Export Plug-In . SVG Version: 6.00 Build 0)  -->
<!DOCTYPE svg PUBLIC "-//W3C//DTD SVG 1.1//EN" "http://www.w3.org/Graphics/SVG/1.1/DTD/svg11.dtd">
<svg version="1.1" id="Capa_1" xmlns="http://www.w3.org/2000/svg" xmlns:xlink="http://www.w3.org/1999/xlink" x="0px" y="0px"
     width="216px" height="146px" viewBox="0 0 216 146" enable-background="new 0 0 216 146" xml:space="preserve">
<path d="M130.16,73l23.953-23.953c1.521-1.52,2.281-3.367,2.281-5.54c0-2.173-0.761-4.019-2.281-5.54l-11.08-11.081
	c-1.521-1.521-3.367-2.281-5.539-2.281c-2.174,0-4.02,0.76-5.541,2.281L108,50.839L84.047,26.886
	c-1.52-1.521-3.367-2.281-5.54-2.281c-2.172,0-4.019,0.76-5.54,2.281L61.886,37.967c-1.52,1.52-2.281,3.367-2.281,5.54
	c0,2.173,0.76,4.019,2.281,5.54L85.839,73L61.886,96.953c-1.52,1.521-2.281,3.367-2.281,5.54s0.76,4.019,2.281,5.54l11.081,11.08
	c1.521,1.521,3.368,2.281,5.54,2.281c2.173,0,4.019-0.761,5.54-2.281L108,95.16l23.954,23.953c1.521,1.521,3.366,2.281,5.541,2.281
	c2.172,0,4.019-0.761,5.539-2.281l11.079-11.08c1.521-1.52,2.281-3.367,2.281-5.54s-0.76-4.019-2.281-5.54L130.16,73z"/>
</svg>
