<?xml version="1.0" encoding="utf-8"?>
<!-- Generator: Adobe Illustrator 16.0.4, SVG Export Plug-In . SVG Version: 6.00 Build 0)  -->
<!DOCTYPE svg PUBLIC "-//W3C//DTD SVG 1.1//EN" "http://www.w3.org/Graphics/SVG/1.1/DTD/svg11.dtd">
<svg version="1.1" id="Capa_1" xmlns="http://www.w3.org/2000/svg" xmlns:xlink="http://www.w3.org/1999/xlink" x="0px" y="0px"
     width="216px" height="146px" viewBox="0 0 216 146" enable-background="new 0 0 216 146" xml:space="preserve">
<g>
	<path d="M165.357,104.285H50.643c-1.413,0-2.635,0.517-3.667,1.549c-1.032,1.031-1.548,2.254-1.548,3.666v10.429
		c0,1.412,0.516,2.634,1.548,3.666c1.033,1.032,2.255,1.548,3.667,1.548h114.714c1.412,0,2.634-0.516,3.666-1.548
		c1.031-1.032,1.547-2.254,1.547-3.666V109.5c0-1.412-0.514-2.635-1.547-3.666C167.991,104.802,166.77,104.285,165.357,104.285z"/>
	<path d="M169.023,22.405c-1.032-1.032-2.254-1.548-3.666-1.548H50.643c-1.413,0-2.635,0.516-3.667,1.548
		c-1.032,1.032-1.548,2.254-1.548,3.666V36.5c0,1.412,0.516,2.634,1.548,3.666c1.033,1.032,2.255,1.548,3.667,1.548h114.714
		c1.412,0,2.634-0.516,3.666-1.548c1.031-1.032,1.547-2.254,1.547-3.666V26.071C170.57,24.659,170.055,23.437,169.023,22.405z"/>
	<path d="M165.357,62.571H50.643c-1.413,0-2.635,0.516-3.667,1.548c-1.032,1.032-1.548,2.254-1.548,3.666v10.429
		c0,1.412,0.516,2.636,1.548,3.667c1.033,1.031,2.255,1.548,3.667,1.548h114.714c1.412,0,2.634-0.517,3.666-1.548
		c1.031-1.031,1.547-2.255,1.547-3.667V67.785c0-1.412-0.516-2.634-1.547-3.666C167.991,63.087,166.77,62.571,165.357,62.571z"/>
</g>
</svg>
