<?xml version="1.0" encoding="utf-8"?>
<!-- Generator: Adobe Illustrator 16.0.3, SVG Export Plug-In . SVG Version: 6.00 Build 0)  -->
<!DOCTYPE svg PUBLIC "-//W3C//DTD SVG 1.1//EN" "http://www.w3.org/Graphics/SVG/1.1/DTD/svg11.dtd">
<svg version="1.1" id="Calque_1" xmlns="http://www.w3.org/2000/svg" xmlns:xlink="http://www.w3.org/1999/xlink" x="0px" y="0px"
	 width="101px" height="65px" viewBox="0 0 101 65" enable-background="new 0 0 101 65" xml:space="preserve">
<path fill-rule="evenodd" clip-rule="evenodd" fill="#020304" d="M31.316,18.65h4.218v-1.553c0-2.442,1.998-4.439,4.439-4.439h1.049
	v-2.139h5.787v2.139h31.955c2.441,0,4.439,1.998,4.439,4.439v32.944c0,2.44-1.999,4.439-4.439,4.439h-15.94H39.974H22.235
	c-2.442,0-4.439-1.996-4.439-4.439V23.09c0-2.297,1.767-4.2,4.008-4.418v-1.845h-1.075v-4.994h11.733v4.994h-1.146V18.65
	L31.316,18.65z M59.913,19.052c-4.135,0-7.876,1.675-10.585,4.384s-4.384,6.451-4.384,10.584c0,4.133,1.675,7.877,4.384,10.586
	c2.709,2.708,6.45,4.383,10.585,4.383c4.132,0,7.876-1.675,10.585-4.383c2.708-2.709,4.384-6.453,4.384-10.586
	c0-4.133-1.676-7.875-4.384-10.584C67.789,20.728,64.045,19.052,59.913,19.052L59.913,19.052z M72.494,16.747v3.963h6.5v-3.963
	H72.494L72.494,16.747z M68.436,25.497c-2.18-2.181-5.193-3.531-8.522-3.531s-6.344,1.35-8.523,3.531
	c-2.182,2.181-3.531,5.196-3.531,8.523c0,3.33,1.35,6.343,3.531,8.523c2.18,2.182,5.194,3.531,8.523,3.531s6.343-1.35,8.522-3.531
	c2.182-2.181,3.531-5.193,3.531-8.523C71.967,30.693,70.617,27.678,68.436,25.497z"/>
</svg>
