<?xml version="1.0" encoding="utf-8"?>
<!-- Generator: Adobe Illustrator 16.0.4, SVG Export Plug-In . SVG Version: 6.00 Build 0)  -->
<!DOCTYPE svg PUBLIC "-//W3C//DTD SVG 1.1//EN" "http://www.w3.org/Graphics/SVG/1.1/DTD/svg11.dtd">
<svg version="1.1" id="Capa_1" xmlns="http://www.w3.org/2000/svg" xmlns:xlink="http://www.w3.org/1999/xlink" x="0px" y="0px"
     width="216px" height="146px" viewBox="0 0 216 146" enable-background="new 0 0 216 146" xml:space="preserve">
<g>
	<path d="M96.268,117.321c-0.163-0.435-0.219-0.804-0.164-1.103c0.055-0.297-0.135-0.543-0.57-0.732
		c-0.435-0.189-0.652-0.34-0.652-0.448s-0.312-0.19-0.937-0.244c-0.625-0.055-0.937-0.082-0.937-0.082h-1.059h-0.896H67.589
		c-3.585,0-6.654-1.275-9.207-3.829c-2.553-2.553-3.829-5.621-3.829-9.205V44.32c0-3.585,1.276-6.653,3.829-9.206
		c2.553-2.553,5.622-3.83,9.207-3.83H93.66c0.706,0,1.262-0.175,1.67-0.529c0.407-0.353,0.678-0.883,0.814-1.589
		c0.136-0.706,0.218-1.344,0.245-1.914c0.027-0.57,0.014-1.29-0.041-2.159c-0.054-0.869-0.081-1.412-0.081-1.63
		c0-0.706-0.258-1.316-0.774-1.833c-0.516-0.515-1.127-0.773-1.833-0.773H67.589c-6.463,0-11.99,2.295-16.58,6.884
		c-4.589,4.59-6.884,10.116-6.884,16.58v57.356c0,6.463,2.295,11.99,6.884,16.579c4.59,4.591,10.117,6.886,16.58,6.886h26.072
		c0.706,0,1.262-0.177,1.67-0.529c0.407-0.354,0.678-0.883,0.814-1.59c0.136-0.705,0.218-1.345,0.245-1.914
		c0.027-0.57,0.014-1.289-0.041-2.158C96.295,118.082,96.268,117.539,96.268,117.321z"/>
	<path d="M170.327,69.333l-44.321-44.322c-1.031-1.031-2.254-1.548-3.666-1.548s-2.635,0.517-3.667,1.548
		c-1.032,1.032-1.548,2.255-1.548,3.667v23.464h-36.5c-1.413,0-2.635,0.517-3.667,1.548c-1.032,1.032-1.548,2.255-1.548,3.667
		v31.286c0,1.412,0.516,2.635,1.548,3.666c1.033,1.031,2.255,1.549,3.667,1.549h36.5v23.464c0,1.411,0.516,2.635,1.548,3.666
		c1.032,1.032,2.255,1.548,3.667,1.548s2.635-0.516,3.666-1.548l44.321-44.321c1.032-1.032,1.548-2.254,1.548-3.666
		S171.359,70.365,170.327,69.333z"/>
</g>
</svg>
