<?xml version="1.0" encoding="utf-8"?>
<!-- Generator: Adobe Illustrator 16.0.4, SVG Export Plug-In . SVG Version: 6.00 Build 0)  -->
<!DOCTYPE svg PUBLIC "-//W3C//DTD SVG 1.1//EN" "http://www.w3.org/Graphics/SVG/1.1/DTD/svg11.dtd">
<svg version="1.1" id="Capa_1" xmlns="http://www.w3.org/2000/svg" xmlns:xlink="http://www.w3.org/1999/xlink" x="0px" y="0px"
     width="216px" height="146px" viewBox="0 0 216 146" enable-background="new 0 0 216 146" xml:space="preserve">
<g>
	<path d="M71.5,62.571h73c1.412,0,2.635-0.516,3.666-1.548c1.031-1.032,1.549-2.254,1.549-3.666s-0.518-2.634-1.549-3.667
		l-36.5-36.5c-1.031-1.031-2.253-1.548-3.666-1.548s-2.635,0.517-3.667,1.548l-36.5,36.5c-1.032,1.032-1.548,2.255-1.548,3.667
		s0.516,2.634,1.548,3.666C68.866,62.055,70.088,62.571,71.5,62.571z"/>
	<path d="M144.5,83.43h-73c-1.413,0-2.635,0.516-3.667,1.547c-1.032,1.032-1.548,2.254-1.548,3.666s0.516,2.635,1.548,3.666
		l36.5,36.5c1.033,1.032,2.255,1.549,3.667,1.549s2.635-0.517,3.666-1.549l36.5-36.5c1.031-1.031,1.549-2.254,1.549-3.666
		s-0.518-2.634-1.549-3.666C147.135,83.945,145.912,83.43,144.5,83.43z"/>
</g>
</svg>
