<?xml version="1.0" encoding="utf-8"?>
<!-- Generator: Adobe Illustrator 16.0.3, SVG Export Plug-In . SVG Version: 6.00 Build 0)  -->
<!DOCTYPE svg PUBLIC "-//W3C//DTD SVG 1.1//EN" "http://www.w3.org/Graphics/SVG/1.1/DTD/svg11.dtd">
<svg version="1.1" id="Calque_1" xmlns="http://www.w3.org/2000/svg" xmlns:xlink="http://www.w3.org/1999/xlink" x="0px" y="0px"
	 width="25.44px" height="14.03px" viewBox="0 0 25.44 14.03" enable-background="new 0 0 25.44 14.03" xml:space="preserve">
<g>
	<path fill="#010202" d="M25.439,6.449c0-0.631-0.246-1.225-0.691-1.671c-0.447-0.447-1.041-0.692-1.672-0.692l-6.045,0
		c-1.305,0-2.365,1.061-2.365,2.364v0.432c0,0.232,0.189,0.42,0.42,0.42c0.232,0,0.422-0.188,0.422-0.42V6.449
		c0-0.84,0.682-1.523,1.523-1.523h6.045c0.408,0,0.789,0.159,1.078,0.446C24.441,5.66,24.6,6.042,24.6,6.449v0.865
		c0,0.84-0.684,1.523-1.523,1.523h-6.045c-0.453,0-0.877-0.199-1.168-0.545c-0.148-0.178-0.414-0.201-0.592-0.051
		c-0.178,0.148-0.201,0.414-0.053,0.592c0.045,0.053,0.092,0.104,0.141,0.152c0.443,0.441,1.041,0.691,1.672,0.691h6.045
		c0.631,0,1.225-0.246,1.672-0.691c0.445-0.447,0.691-1.041,0.691-1.672V6.449z"/>
	<path fill="#010202" d="M10.158,8.211C9.97,8.074,9.708,8.115,9.571,8.303C9.305,8.668,8.936,8.838,8.41,8.838H2.364
		c-0.84,0-1.523-0.684-1.523-1.524V6.449c0-0.84,0.684-1.523,1.523-1.523H8.41c0.84,0,1.523,0.684,1.523,1.523v0.433
		c0,0.232,0.188,0.42,0.42,0.42c0.232,0,0.42-0.188,0.42-0.42V6.449c0-0.631-0.246-1.225-0.692-1.671
		C9.635,4.332,9.042,4.085,8.41,4.086l-6.046,0C1.061,4.086,0,5.146,0,6.449l0,0.865c0,0.651,0.265,1.242,0.693,1.67
		c0.428,0.428,1.019,0.693,1.67,0.693H8.41c0.795,0,1.414-0.295,1.84-0.879C10.387,8.611,10.345,8.348,10.158,8.211z"/>
	<path fill="#010202" d="M12.867,0c-0.232,0-0.42,0.188-0.42,0.42v3.524c0,0.116,0.047,0.221,0.123,0.297
		c0.076,0.076,0.181,0.123,0.297,0.123c0.232,0,0.42-0.188,0.42-0.42l0-3.524C13.287,0.188,13.099,0,12.867,0z"/>
	<path fill="#010202" d="M14.311,3.322c0.205,0.108,0.459,0.031,0.568-0.174l0.863-1.627c0.109-0.205,0.031-0.459-0.174-0.568
		S15.109,0.922,15,1.126l-0.863,1.627c-0.088,0.167-0.053,0.367,0.074,0.494C14.24,3.276,14.273,3.301,14.311,3.322z"/>
	<path fill="#010202" d="M10.734,1.126c-0.109-0.205-0.363-0.283-0.568-0.174S9.884,1.315,9.993,1.521l0.863,1.627
		c0.021,0.038,0.045,0.072,0.074,0.101c0.127,0.127,0.327,0.162,0.494,0.074c0.205-0.109,0.283-0.363,0.174-0.568L10.734,1.126z"/>
	<path fill="#010202" d="M12.824,9.666c-0.232,0-0.42,0.188-0.42,0.42v3.525c0,0.115,0.047,0.221,0.123,0.297
		s0.181,0.123,0.297,0.123c0.232,0,0.42-0.189,0.42-0.42v-3.525C13.245,9.854,13.056,9.666,12.824,9.666z"/>
	<path fill="#010202" d="M11.381,10.709c-0.205-0.109-0.459-0.031-0.568,0.174L9.949,12.51c-0.088,0.166-0.053,0.367,0.074,0.494
		c0.029,0.029,0.063,0.053,0.101,0.074c0.205,0.107,0.459,0.031,0.568-0.174l0.864-1.627C11.664,11.072,11.586,10.818,11.381,10.709
		z"/>
	<path fill="#010202" d="M14.836,10.883c-0.109-0.205-0.363-0.283-0.568-0.174c-0.205,0.107-0.283,0.363-0.174,0.568l0.863,1.627
		c0.021,0.037,0.045,0.07,0.074,0.1c0.127,0.127,0.328,0.162,0.494,0.074c0.205-0.109,0.283-0.363,0.174-0.568L14.836,10.883z"/>
</g>
</svg>
