<?xml version="1.0" encoding="utf-8"?>
<!-- Generator: Adobe Illustrator 16.0.3, SVG Export Plug-In . SVG Version: 6.00 Build 0)  -->
<!DOCTYPE svg PUBLIC "-//W3C//DTD SVG 1.1//EN" "http://www.w3.org/Graphics/SVG/1.1/DTD/svg11.dtd">
<svg version="1.1" id="Calque_1" xmlns="http://www.w3.org/2000/svg" xmlns:xlink="http://www.w3.org/1999/xlink" x="0px" y="0px"
	 width="25.46px" height="5.84px" viewBox="0 0 25.46 5.84" enable-background="new 0 0 25.46 5.84" xml:space="preserve">
<path fill="#010202" d="M25.45,2.529c-0.001-0.559-0.156-1.095-0.494-1.544c-0.374-0.498-0.933-0.843-1.546-0.95
	c-0.219-0.038-0.437-0.037-0.656-0.037c-0.693,0-1.387,0-2.08,0c-1.352,0-2.702,0-4.053,0c-1.268,0-2.359,1.005-2.459,2.27
	C14.156,2.345,14.16,2.422,14.159,2.5c-0.951,0-1.901,0-2.851,0c-0.011-0.331-0.059-0.66-0.186-0.968
	c-0.395-0.962-1.335-1.533-2.358-1.533c-0.595,0-1.19,0-1.785,0c-1.482,0-2.964,0-4.446,0c-1.248,0-2.346,0.896-2.504,2.155
	C-0.019,2.542,0.01,2.947,0.01,3.337c0,0.667,0.247,1.305,0.721,1.78C0.616,5.002,0.5,4.887,0.732,5.119
	c0.232,0.23,0.117,0.115,0.001,0c0.5,0.498,1.153,0.721,1.848,0.721c0.375,0,0.749,0,1.124,0c1.61,0,3.221,0,4.832,0
	c0.173,0,0.348,0.006,0.521-0.006c0.666-0.047,1.272-0.342,1.677-0.879c0.197-0.26,0.08-0.662-0.273-0.697
	C10.13,4.225,9.979,4.602,9.737,4.764C9.438,4.965,9.086,5,8.735,5C7.21,5,5.685,5,4.16,5C3.61,5,3.061,5,2.512,5
	C1.975,5,1.471,4.762,1.154,4.32C0.832,3.873,0.851,3.372,0.851,2.85c0-0.494,0.017-0.956,0.332-1.369
	c0.311-0.408,0.798-0.643,1.31-0.643c0.514,0,1.029,0,1.543,0c1.552,0,3.104,0,4.656,0c0.332,0,0.651,0.042,0.947,0.209
	c0.32,0.181,0.576,0.472,0.712,0.814c0.083,0.208,0.102,0.42,0.107,0.638c-0.351,0-0.702,0-1.053,0c-0.632,0-1.264,0-1.896,0
	c-0.147,0-0.294,0-0.442,0c-0.031,0-0.063-0.001-0.094,0.001C6.626,2.533,6.468,2.969,6.715,3.217C6.844,3.346,7,3.34,7.165,3.34
	c0.18,0,0.36,0,0.541,0c0.642,0,1.284,0,1.926,0c1.788,0,3.575,0,5.362,0c0.646,0,1.291,0,1.936,0c0.156,0,0.313,0,0.468,0
	c0.023,0,0.047,0,0.07,0c0.303,0,0.511-0.326,0.38-0.6c-0.163-0.344-0.746-0.24-1.057-0.24c-0.598,0-1.197,0-1.797,0
	c0.002-0.128,0.01-0.255,0.037-0.381c0.133-0.614,0.629-1.109,1.242-1.243c0.199-0.043,0.398-0.037,0.6-0.037
	c0.704,0,1.408,0,2.111,0c1.333,0,2.667-0.016,4,0c0.633,0,1.223,0.382,1.482,0.959c0.188,0.416,0.143,0.88,0.143,1.324
	c0,0.188,0.007,0.376-0.029,0.562c-0.059,0.305-0.207,0.59-0.421,0.814C23.841,4.83,23.405,5,22.949,5c-1.455,0-2.91,0-4.364,0
	c-0.62,0-1.239,0-1.859,0c-0.386,0-0.751-0.082-1.067-0.314c-0.246-0.182-0.457-0.564-0.813-0.361
	c-0.141,0.08-0.225,0.238-0.211,0.4c0.014,0.164,0.132,0.283,0.243,0.395c0.46,0.459,1.094,0.721,1.743,0.721
	c0.105,0,0.211,0,0.315,0c0.629,0,1.258,0,1.887,0c1.386,0,2.771,0,4.156,0c1.212,0,2.275-0.912,2.447-2.115
	C25.48,3.333,25.45,2.923,25.45,2.529z"/>
</svg>
