<?xml version="1.0" encoding="utf-8"?>
<!-- Generator: Adobe Illustrator 16.0.4, SVG Export Plug-In . SVG Version: 6.00 Build 0)  -->
<!DOCTYPE svg PUBLIC "-//W3C//DTD SVG 1.1//EN" "http://www.w3.org/Graphics/SVG/1.1/DTD/svg11.dtd">
<svg version="1.1" id="Capa_1" xmlns="http://www.w3.org/2000/svg" xmlns:xlink="http://www.w3.org/1999/xlink" x="0px" y="0px"
     width="216px" height="146px" viewBox="0 0 216 146" enable-background="new 0 0 216 146" xml:space="preserve">
<g>
	<path d="M118.428,23.464c-1.412,0-2.634,0.516-3.666,1.548l-27.13,27.131H66.286c-1.413,0-2.635,0.516-3.667,1.548
		c-1.032,1.033-1.548,2.255-1.548,3.667v31.285c0,1.412,0.516,2.636,1.548,3.666c1.033,1.033,2.255,1.549,3.667,1.549h21.346
		l27.13,27.132c1.032,1.03,2.254,1.547,3.666,1.547c1.413,0,2.635-0.517,3.668-1.547c1.031-1.032,1.547-2.255,1.547-3.666V28.679
		c0-1.412-0.516-2.635-1.547-3.667C121.062,23.98,119.841,23.464,118.428,23.464z"/>
	<path d="M151.466,61.428c-2.309-3.585-5.362-6.111-9.166-7.577c-0.543-0.271-1.222-0.407-2.036-0.407
		c-1.412,0-2.635,0.503-3.666,1.507c-1.031,1.005-1.549,2.241-1.549,3.707c0,1.141,0.327,2.105,0.979,2.893
		c0.652,0.788,1.438,1.467,2.363,2.037c0.922,0.57,1.846,1.195,2.77,1.874c0.924,0.679,1.711,1.643,2.363,2.892
		c0.651,1.249,0.978,2.797,0.978,4.644c0,1.848-0.327,3.395-0.978,4.645c-0.652,1.25-1.439,2.213-2.363,2.894
		c-0.924,0.678-1.848,1.303-2.77,1.873c-0.925,0.569-1.711,1.25-2.363,2.037c-0.652,0.788-0.979,1.752-0.979,2.893
		c0,1.468,0.518,2.701,1.549,3.707c1.031,1.004,2.254,1.507,3.666,1.507c0.814,0,1.493-0.136,2.036-0.406
		c3.804-1.521,6.857-4.061,9.166-7.617c2.31-3.559,3.464-7.4,3.464-11.529C154.93,68.872,153.773,65.016,151.466,61.428z"/>
</g>
</svg>
