<?xml version="1.0" encoding="utf-8"?>
<!-- Generator: Adobe Illustrator 16.0.4, SVG Export Plug-In . SVG Version: 6.00 Build 0)  -->
<!DOCTYPE svg PUBLIC "-//W3C//DTD SVG 1.1//EN" "http://www.w3.org/Graphics/SVG/1.1/DTD/svg11.dtd">
<svg version="1.1" id="Capa_1" xmlns="http://www.w3.org/2000/svg" xmlns:xlink="http://www.w3.org/1999/xlink" x="0px" y="0px"
     width="216px" height="146px" viewBox="0 0 216 146" enable-background="new 0 0 216 146" xml:space="preserve">
<path d="M137.739,25.012c-1.033-1.032-2.255-1.548-3.667-1.548s-2.635,0.516-3.666,1.548l-27.131,27.131H81.929
	c-1.413,0-2.635,0.516-3.667,1.548c-1.032,1.033-1.548,2.255-1.548,3.667v31.285c0,1.412,0.516,2.636,1.548,3.666
	c1.033,1.033,2.255,1.549,3.667,1.549h21.345l27.13,27.132c1.033,1.03,2.255,1.547,3.666,1.547c1.414,0,2.635-0.517,3.668-1.547
	c1.031-1.032,1.547-2.255,1.547-3.666V28.679C139.285,27.267,138.77,26.044,137.739,25.012z"/>
</svg>
