<?xml version="1.0" encoding="utf-8"?>
<!-- Generator: Adobe Illustrator 16.0.4, SVG Export Plug-In . SVG Version: 6.00 Build 0)  -->
<!DOCTYPE svg PUBLIC "-//W3C//DTD SVG 1.1//EN" "http://www.w3.org/Graphics/SVG/1.1/DTD/svg11.dtd">
<svg version="1.1" id="Capa_1" xmlns="http://www.w3.org/2000/svg" xmlns:xlink="http://www.w3.org/1999/xlink" x="0px" y="0px"
     width="216px" height="146px" viewBox="0 0 216 146" enable-background="new 0 0 216 146" xml:space="preserve">
<g>
	<path d="M97.572,23.464c-1.412,0-2.634,0.517-3.666,1.548L66.775,52.143H45.429c-1.413,0-2.635,0.517-3.667,1.548
		c-1.032,1.032-1.548,2.255-1.548,3.667v31.285c0,1.412,0.516,2.635,1.548,3.666c1.033,1.032,2.255,1.549,3.667,1.549h21.345
		l27.131,27.131c1.032,1.031,2.254,1.548,3.666,1.548c1.413,0,2.635-0.517,3.667-1.548c1.032-1.031,1.548-2.254,1.548-3.666V28.679
		c0-1.412-0.516-2.635-1.547-3.667C100.206,23.981,98.985,23.464,97.572,23.464z"/>
	<path d="M130.609,84.527c2.309-3.557,3.463-7.399,3.463-11.527s-1.154-7.988-3.463-11.573c-2.31-3.585-5.363-6.11-9.166-7.577
		c-0.543-0.271-1.223-0.407-2.037-0.407c-1.412,0-2.635,0.503-3.666,1.507c-1.031,1.005-1.549,2.241-1.549,3.707
		c0,1.141,0.326,2.105,0.979,2.893c0.652,0.788,1.439,1.467,2.363,2.037c0.922,0.57,1.846,1.195,2.77,1.874s1.711,1.643,2.363,2.892
		c0.65,1.25,0.977,2.798,0.977,4.645c0,1.847-0.326,3.395-0.977,4.645c-0.652,1.25-1.439,2.213-2.363,2.893
		c-0.924,0.679-1.848,1.304-2.77,1.874c-0.924,0.569-1.711,1.249-2.363,2.036c-0.652,0.789-0.979,1.752-0.979,2.893
		c0,1.467,0.518,2.702,1.549,3.707s2.254,1.508,3.666,1.508c0.814,0,1.494-0.136,2.037-0.406
		C125.246,90.625,128.3,88.085,130.609,84.527z"/>
	<path d="M148.004,96.016c4.617-7.033,6.926-14.705,6.926-23.016c0-8.311-2.309-15.982-6.926-23.019
		c-4.617-7.033-10.729-12.152-18.332-15.357c-0.705-0.271-1.412-0.407-2.117-0.407c-1.412,0-2.635,0.516-3.668,1.548
		c-1.031,1.032-1.547,2.254-1.547,3.666c0,2.119,1.059,3.721,3.178,4.808c3.041,1.575,5.105,2.77,6.191,3.584
		c4.02,2.934,7.156,6.613,9.41,11.04c2.254,4.427,3.381,9.139,3.381,14.136s-1.127,9.709-3.381,14.136
		c-2.254,4.428-5.391,8.106-9.41,11.039c-1.086,0.815-3.15,2.01-6.191,3.585c-2.119,1.087-3.178,2.689-3.178,4.808
		c0,1.412,0.516,2.635,1.547,3.666c1.033,1.033,2.281,1.549,3.748,1.549c0.652,0,1.332-0.137,2.037-0.407
		C137.275,108.169,143.387,103.05,148.004,96.016z"/>
	<path d="M165.439,38.579c-6.898-10.455-16.078-18.155-27.539-23.098c-0.705-0.271-1.412-0.407-2.117-0.407
		c-1.412,0-2.635,0.517-3.666,1.548c-1.033,1.032-1.549,2.255-1.549,3.667c0,1.955,1.059,3.558,3.178,4.807
		c0.381,0.216,0.99,0.501,1.832,0.855c0.842,0.352,1.453,0.637,1.834,0.854c2.498,1.357,4.725,2.743,6.682,4.155
		c6.68,4.942,11.896,11.107,15.643,18.494c3.748,7.387,5.621,15.235,5.621,23.546c0,8.312-1.873,16.159-5.621,23.546
		c-3.747,7.387-8.963,13.553-15.643,18.494c-1.957,1.412-4.184,2.797-6.682,4.155c-0.381,0.216-0.992,0.501-1.834,0.854
		c-0.842,0.352-1.451,0.637-1.832,0.855c-2.119,1.249-3.178,2.852-3.178,4.807c0,1.412,0.516,2.635,1.549,3.666
		c1.031,1.032,2.254,1.549,3.666,1.549c0.705,0,1.412-0.136,2.117-0.408c11.461-4.942,20.641-12.642,27.539-23.098
		c6.898-10.455,10.346-21.93,10.346-34.422S172.338,49.033,165.439,38.579z"/>
</g>
</svg>
