<?xml version="1.0" encoding="utf-8"?>
<!-- Generator: Adobe Illustrator 18.1.1, SVG Export Plug-In . SVG Version: 6.00 Build 0)  -->
<svg version="1.1" id="Calque_2" xmlns="http://www.w3.org/2000/svg" xmlns:xlink="http://www.w3.org/1999/xlink" x="0px" y="0px"
	 viewBox="0 0 65 65" enable-background="new 0 0 65 65" xml:space="preserve">
<path fill="#050505" d="M2.5,20.9H8v-8.3h50v38.9H38.6V57h18.6c0,0,6.4,0.4,6.4-4.5c0-4.3,0-39.1,0-39.1S63.5,7,58,7S10.1,7,8,7
	s-5.6,0.9-5.6,5.6S2.5,20.9,2.5,20.9z"/>
<path fill="#050505" d="M2.5,26.4V32c0,0,23.3-0.7,25,25H33C33,57,33.2,29,2.5,26.4z"/>
<path fill="#050505" d="M2.5,43.1c0,0,12.3-0.3,13.9,13.9H22c0,0,0.5-17.9-19.4-19.4v5.5H2.5z"/>
<path fill="#050505" d="M2.5,57h8.3c0,0-0.7-8.3-8.3-8.3V57z"/>
<path fill="#050505" d="M12,16.5h42v30H37.1c0,0-3.6-18.5-25.1-25.1V16.5z"/>
</svg>
