<?xml version="1.0" encoding="utf-8"?>
<!-- Generator: Adobe Illustrator 16.0.3, SVG Export Plug-In . SVG Version: 6.00 Build 0)  -->
<!DOCTYPE svg PUBLIC "-//W3C//DTD SVG 1.1//EN" "http://www.w3.org/Graphics/SVG/1.1/DTD/svg11.dtd">
<svg version="1.1" id="Calque_1" xmlns="http://www.w3.org/2000/svg" xmlns:xlink="http://www.w3.org/1999/xlink" x="0px" y="0px"
	 width="160px" height="130px" viewBox="0 0 160 130" enable-background="new 0 0 160 130" xml:space="preserve">
<g id="Son_n2">
	<path fill="#1E1E1C" d="M95.363,121.492L50.788,89.715H12.26V41.183h38.479L95.429,9.416L95.363,121.492z M14.554,87.422h36.969
		l41.55,29.617L93.13,13.862L51.471,43.477H14.554V87.422z"/>
	<path fill="#1E1E1C" d="M109.871,90.096l-0.645-2.202c8.779-2.571,14.912-10.751,14.912-19.896s-6.133-17.327-14.912-19.897
		l0.645-2.204c9.75,2.859,16.561,11.943,16.561,22.101C126.432,78.153,119.621,87.24,109.871,90.096"/>
	<path fill="#1E1E1C" d="M118.271,105.875l-0.644-2.202c15.739-4.609,26.731-19.28,26.731-35.677
		c0-16.395-10.992-31.065-26.731-35.673l0.644-2.202c16.711,4.893,28.382,20.469,28.382,37.875
		C146.653,85.406,134.982,100.98,118.271,105.875"/>
</g>
</svg>
