<?xml version="1.0" encoding="utf-8"?>
<!-- Generator: Adobe Illustrator 16.0.3, SVG Export Plug-In . SVG Version: 6.00 Build 0)  -->
<!DOCTYPE svg PUBLIC "-//W3C//DTD SVG 1.1//EN" "http://www.w3.org/Graphics/SVG/1.1/DTD/svg11.dtd">
<svg version="1.1" id="Calque_1" xmlns="http://www.w3.org/2000/svg" xmlns:xlink="http://www.w3.org/1999/xlink" x="0px" y="0px"
	 width="140px" height="140px" viewBox="0 0 140 140" enable-background="new 0 0 140 140" xml:space="preserve">
<g id="Bt_plein_ecran">
	<polygon fill="#1E1E1C" points="17.256,43.451 14.962,43.451 14.962,15.537 42.872,15.537 42.872,17.832 17.256,17.832 	"/>
	<polygon fill="#1E1E1C" points="42.872,124.889 14.96,124.889 14.96,96.975 17.254,96.975 17.254,122.594 42.872,122.594 	"/>
	<polygon fill="#1E1E1C" points="124.311,124.889 96.4,124.889 96.4,122.594 122.017,122.594 122.017,96.975 124.311,96.975 	"/>
	<polygon fill="#1E1E1C" points="124.311,43.451 122.017,43.451 122.017,17.832 96.4,17.832 96.4,15.537 124.311,15.537 	"/>
	
		<rect x="107.38" y="10.622" transform="matrix(0.7067 0.7075 -0.7075 0.7067 53.994 -67.5995)" fill="#1E1E1C" width="2.294" height="41.399"/>
	
		<rect x="29.653" y="88.273" transform="matrix(0.7075 0.7067 -0.7067 0.7075 86.0714 10.1279)" fill="#1E1E1C" width="2.294" height="41.554"/>
	
		<rect x="87.699" y="107.905" transform="matrix(0.7071 0.7071 -0.7071 0.7071 108.8875 -44.7619)" fill="#1E1E1C" width="41.549" height="2.294"/>
	
		<rect x="10.046" y="30.175" transform="matrix(0.707 0.7072 -0.7072 0.707 31.1565 -12.5661)" fill="#1E1E1C" width="41.398" height="2.293"/>
</g>
</svg>
