<?xml version="1.0" encoding="utf-8"?>
<!-- Generator: Adobe Illustrator 16.0.3, SVG Export Plug-In . SVG Version: 6.00 Build 0)  -->
<!DOCTYPE svg PUBLIC "-//W3C//DTD SVG 1.1//EN" "http://www.w3.org/Graphics/SVG/1.1/DTD/svg11.dtd">
<svg version="1.1" id="Calque_1" xmlns="http://www.w3.org/2000/svg" xmlns:xlink="http://www.w3.org/1999/xlink" x="0px" y="0px"
	 width="140px" height="140px" viewBox="0 0 140 140" enable-background="new 0 0 140 140" xml:space="preserve">
<g id="Bt_play">
	<path d="M55.979,93.631V47.066l40.327,23.283L55.979,93.631z M58.273,51.04v38.617l33.444-19.308L58.273,51.04z"/>
	<path d="M69.259,131.904c-33.942,0-61.555-27.613-61.555-61.555c0-33.942,27.613-61.555,61.555-61.555
		c33.941,0,61.555,27.613,61.555,61.555C130.813,104.291,103.2,131.904,69.259,131.904 M69.259,11.088
		c-32.676,0-59.261,26.585-59.261,59.261s26.585,59.26,59.261,59.26s59.26-26.584,59.26-59.26S101.935,11.088,69.259,11.088"/>
</g>
</svg>
