<?xml version="1.0" encoding="utf-8"?>
<!-- Generator: Adobe Illustrator 16.0.4, SVG Export Plug-In . SVG Version: 6.00 Build 0)  -->
<!DOCTYPE svg PUBLIC "-//W3C//DTD SVG 1.1//EN" "http://www.w3.org/Graphics/SVG/1.1/DTD/svg11.dtd">
<svg version="1.1" id="Capa_1" xmlns="http://www.w3.org/2000/svg" xmlns:xlink="http://www.w3.org/1999/xlink" x="0px" y="0px"
	 width="216px" height="146px" viewBox="0 0 216 146" enable-background="new 0 0 216 146" xml:space="preserve">
<path d="M179.371,67.378c-7.605-12.438-17.831-22.432-30.676-29.982c-12.846-7.55-26.41-11.325-40.695-11.325
	s-27.85,3.774-40.696,11.325c-12.846,7.55-23.071,17.544-30.675,29.982C35.543,69.279,35,71.153,35,73s0.543,3.721,1.629,5.621
	c7.604,12.439,17.829,22.434,30.675,29.982c12.846,7.551,26.411,11.324,40.696,11.324s27.85-3.761,40.695-11.283
	s23.072-17.53,30.676-30.023C180.457,76.721,181,74.848,181,73C181,71.153,180.457,69.279,179.371,67.378z M90.523,45.095
	c4.861-4.861,10.686-7.292,17.476-7.292c1.086,0,2.01,0.381,2.771,1.141c0.76,0.76,1.141,1.684,1.141,2.77
	c0,1.087-0.381,2.01-1.139,2.769c-0.76,0.761-1.685,1.141-2.771,1.141c-4.671,0-8.664,1.657-11.977,4.97
	c-3.314,3.314-4.97,7.306-4.97,11.977c0,1.087-0.381,2.01-1.141,2.771c-0.761,0.761-1.684,1.141-2.77,1.141
	c-1.087,0-2.01-0.381-2.771-1.141c-0.761-0.761-1.141-1.685-1.141-2.771C83.231,55.782,85.662,49.956,90.523,45.095z M143.4,99.602
	C132.51,106.2,120.71,109.5,108,109.5s-24.51-3.299-35.4-9.898S52.653,84.135,45.429,73c8.256-12.819,18.603-22.406,31.041-28.76
	c-3.313,5.648-4.97,11.759-4.97,18.331c0,10.049,3.572,18.643,10.714,25.786C89.356,95.5,97.952,99.071,108,99.071
	c10.049,0,18.643-3.572,25.786-10.714C140.93,81.215,144.5,72.62,144.5,62.571c0-6.572-1.657-12.684-4.971-18.331
	c12.438,6.354,22.785,15.942,31.041,28.76C163.348,84.135,154.291,93.002,143.4,99.602z"/>
</svg>
