<?xml version="1.0" encoding="utf-8"?>
<!-- Generator: Adobe Illustrator 16.0.4, SVG Export Plug-In . SVG Version: 6.00 Build 0)  -->
<!DOCTYPE svg PUBLIC "-//W3C//DTD SVG 1.1//EN" "http://www.w3.org/Graphics/SVG/1.1/DTD/svg11.dtd">
<svg version="1.1" id="Capa_1" xmlns="http://www.w3.org/2000/svg" xmlns:xlink="http://www.w3.org/1999/xlink" x="0px" y="0px"
	 width="216px" height="146px" viewBox="0 0 216 146" enable-background="new 0 0 216 146" xml:space="preserve">
<g>
	<path d="M138.062,83.225c4.291-6.219,6.438-13.104,6.438-20.653c0-2.118-0.217-4.399-0.652-6.844l-22.812,40.899
		C128.096,93.912,133.771,89.443,138.062,83.225z"/>
	<path d="M141.404,26.886c0.055-0.108,0.08-0.353,0.08-0.733c0-0.924-0.434-1.656-1.305-2.202c-0.162-0.108-0.691-0.421-1.588-0.938
		c-0.896-0.515-1.752-1.018-2.566-1.507c-0.814-0.489-1.709-0.991-2.688-1.507c-0.978-0.516-1.819-0.937-2.524-1.263
		c-0.707-0.326-1.196-0.489-1.467-0.489c-0.978,0-1.738,0.435-2.281,1.304l-4.399,7.903c-4.942-0.923-9.831-1.385-14.665-1.385
		c-14.611,0-28.081,3.694-40.411,11.081c-12.33,7.388-22.649,17.463-30.96,30.227C35.543,69.062,35,70.936,35,73
		c0,2.064,0.543,3.938,1.63,5.621c4.779,7.441,10.442,14.096,16.987,19.961c6.545,5.867,13.701,10.564,21.468,14.096
		c-2.39,4.073-3.585,6.436-3.585,7.088c0,0.978,0.435,1.738,1.304,2.281c6.626,3.803,10.265,5.703,10.917,5.703
		c0.977,0,1.738-0.436,2.281-1.305l3.992-7.25C95.752,108.93,104.333,93.531,115.74,73
		C127.146,52.469,135.701,37.097,141.404,26.886z M80.218,103.553c-14.122-6.355-25.719-16.539-34.789-30.552
		c8.256-12.819,18.603-22.406,31.041-28.76C73.157,49.889,71.5,56,71.5,62.572c0,5.812,1.33,11.324,3.992,16.539
		c2.662,5.214,6.355,9.531,11.081,12.953L80.218,103.553z M110.771,44.483c-0.76,0.761-1.685,1.141-2.771,1.141
		c-4.671,0-8.664,1.657-11.977,4.97c-3.314,3.314-4.97,7.306-4.97,11.977c0,1.087-0.381,2.01-1.141,2.771
		c-0.761,0.761-1.684,1.141-2.77,1.141c-1.087,0-2.01-0.381-2.771-1.141c-0.761-0.761-1.141-1.685-1.141-2.771
		c0-6.789,2.431-12.615,7.292-17.476c4.861-4.861,10.686-7.292,17.476-7.292c1.086,0,2.01,0.381,2.771,1.141
		c0.76,0.76,1.141,1.684,1.141,2.77C111.91,42.801,111.529,43.724,110.771,44.483z"/>
	<path d="M179.37,67.377c-3.097-5.159-7.021-10.157-11.772-14.991s-9.709-8.988-14.869-12.465l-5.133,9.125
		c9.07,6.246,16.729,14.231,22.975,23.953c-6.571,10.211-14.76,18.549-24.562,25.012c-9.805,6.466-20.464,10.185-31.979,11.162
		L108,119.928c12.059,0,23.451-2.58,34.178-7.74c10.727-5.158,20.165-12.41,28.312-21.752c3.802-4.4,6.762-8.338,8.881-11.814
		C180.457,76.775,181,74.9,181,73C181,71.099,180.457,69.225,179.37,67.377z"/>
</g>
</svg>
